<svg id="Layer_1" enable-background="new 0 0 512 512" height="512" viewBox="0 0 512 512" width="512" xmlns="http://www.w3.org/2000/svg"><path d="m287.744 368.986h-114.888c-5.561 0-10.069 4.509-10.069 10.071s4.508 10.071 10.069 10.071h114.888c5.561 0 10.069-4.509 10.069-10.071.001-5.562-4.508-10.071-10.069-10.071z"/><path d="m119.127 430.688c0 5.562 4.508 10.071 10.069 10.071h56.212c5.561 0 10.069-4.509 10.069-10.071s-4.508-10.071-10.069-10.071h-56.212c-5.561 0-10.069 4.509-10.069 10.071z"/><path d="m265.124 430.688c0 5.562 4.509 10.071 10.069 10.071h56.212c5.561 0 10.069-4.509 10.069-10.071s-4.509-10.071-10.069-10.071h-56.212c-5.56 0-10.069 4.509-10.069 10.071z"/><path d="m230.201 420.617c-5.561 0-10.069 4.509-10.069 10.071s4.508 10.071 10.069 10.071h.198c5.561 0 10.069-4.509 10.069-10.071s-4.508-10.071-10.069-10.071z"/><path d="m25.811 166.535c5.561 0 10.069-4.509 10.069-10.071v-.199c0-5.562-4.508-10.071-10.069-10.071s-10.069 4.509-10.069 10.071v.199c0 5.562 4.508 10.071 10.069 10.071z"/><path d="m484.409 397.297-45.244-45.243v-255.015c0-.322-.018-.642-.049-.961-.013-.134-.036-.265-.053-.397-.024-.179-.048-.357-.081-.534-.031-.16-.07-.317-.108-.474-.035-.144-.07-.288-.111-.43-.048-.166-.102-.329-.159-.492-.045-.13-.092-.26-.142-.389-.063-.161-.13-.32-.202-.477-.058-.128-.12-.255-.183-.381-.075-.148-.152-.296-.234-.44-.075-.132-.155-.26-.236-.389-.083-.131-.164-.262-.253-.389-.096-.137-.198-.27-.301-.403-.086-.111-.17-.223-.26-.331-.025-.03-.046-.061-.071-.091l-74.968-86.966c-.064-.074-.137-.139-.203-.211-.144-.157-.289-.313-.443-.461-.103-.099-.209-.193-.316-.287-.153-.135-.308-.267-.469-.393-.11-.086-.222-.169-.335-.251-.172-.123-.348-.24-.527-.353-.109-.068-.218-.136-.329-.2-.198-.113-.401-.218-.607-.318-.102-.049-.201-.101-.304-.147-.227-.101-.459-.19-.694-.274-.091-.033-.179-.069-.27-.099-.252-.082-.51-.15-.77-.213-.081-.02-.161-.045-.242-.062-.273-.059-.552-.101-.833-.136-.072-.009-.143-.025-.215-.033-.352-.036-.708-.057-1.069-.057h-293.355c-24.83 0-45.031 20.217-45.031 45.068v66.31c0 5.562 4.508 10.071 10.069 10.071s10.069-4.509 10.069-10.071v-66.31c0-13.745 11.167-24.926 24.893-24.926h283.286v64.911c0 12.163 9.906 22.058 22.082 22.058h52.885v224.805l-22.119-22.119c-.055-.058-.103-.12-.159-.176-.057-.057-.119-.105-.177-.16l-47.479-47.478c9.714-18.551 15.219-39.639 15.219-61.992 0-73.899-60.11-134.02-133.996-134.02-73.901 0-134.023 60.121-134.023 134.02 0 35.273 13.699 67.401 36.046 91.36.46.615.992 1.178 1.591 1.68 24.389 25.267 58.582 41.009 96.387 41.009 22.34 0 43.415-5.505 61.955-15.218l47.462 47.48c.057.06.106.124.165.182.058.058.122.107.181.164l78.948 78.979v21.306c0 13.745-11.167 24.926-24.893 24.926h-333.361c-13.726 0-24.893-11.182-24.893-24.926v-265.78c0-5.562-4.508-10.071-10.069-10.071s-10.069 4.509-10.069 10.071v265.779c0 24.851 20.201 45.068 45.031 45.068h333.361c24.83 0 45.031-20.217 45.031-45.068v-4.174c5.518 2.828 11.116 4.085 16.525 4.085 10.709-.001 20.677-4.881 27.804-12.014 14.161-14.17 19.294-39.149.915-57.532zm-120.211-312.244v-47.878l42.922 49.794h-40.978c-1.054 0-1.944-.878-1.944-1.916zm-133.883 1.059c62.781 0 113.857 51.086 113.857 113.878 0 20.808-5.611 40.329-15.391 57.134-.711.842-1.265 1.771-1.656 2.751-1.982 3.194-4.117 6.284-6.395 9.258-11.971-22.144-31.484-39.042-54.579-47.918 13.643-10.97 22.399-27.785 22.399-46.616 0-32.991-26.823-59.832-59.793-59.832-32.985 0-59.821 26.84-59.821 59.832 0 18.811 8.741 35.612 22.367 46.583-7.933 3.046-15.515 7.061-22.591 12.032-12.661 8.896-23.049 20.312-30.628 33.515-13.614-18.769-21.655-41.831-21.655-66.74 0-62.791 51.089-113.877 113.886-113.877zm-41.242 88.488c0-21.885 17.802-39.69 39.683-39.69 21.866 0 39.655 17.805 39.655 39.69 0 21.87-17.788 39.662-39.655 39.662-21.881 0-39.683-17.793-39.683-39.662zm-36.74 108.323c13.789-29.268 43.725-48.52 76.423-48.52 33.651 0 63.944 20.065 77.307 50.549-4.93 4.404-10.245 8.386-15.886 11.889-.992.394-1.932.955-2.783 1.676-16.792 9.774-36.293 15.38-57.08 15.38-30.145 0-57.588-11.78-77.981-30.974zm171.756 12.719c.692-.533 1.304-1.148 1.827-1.827 4.392-4.478 8.474-9.26 12.209-14.315l37.253 37.252-28.353 28.359-37.244-37.259c5.053-3.736 9.833-7.818 14.308-12.21zm145.162 144.947c-6.468 6.473-17.078 9.695-27.454-.671l-80.534-80.565 28.356-28.361 32.17 32.17c.127.133.256.263.39.39l47.99 47.989c10.315 10.317 5.103 23.024-.918 29.048z"/></svg>