<svg height="512" viewBox="0 0 512 512" width="512" xmlns="http://www.w3.org/2000/svg"><g id="Outline"><path d="m488 16h-464a8 8 0 0 0 -8 8v32a8 8 0 0 0 8 8h8v368a8 8 0 0 0 8 8h192v56h16v-56h16v56h16v-56h192a8 8 0 0 0 8-8v-368h8a8 8 0 0 0 8-8v-32a8 8 0 0 0 -8-8zm-24 408h-416v-360h416zm16-376h-448v-16h448z"/><path d="m88 259.314 13.4-13.4a79.912 79.912 0 0 0 107.264-5.445 8 8 0 0 0 -.019-11.315l-48.645-48.476v-68.678a8 8 0 0 0 -8-8 79.953 79.953 0 0 0 -61.913 130.6l-15.744 15.743a8 8 0 0 0 -2.343 5.657v112h16zm56-94.905-31.06-31.061a63.677 63.677 0 0 1 31.06-12.848zm-56 19.591a63.665 63.665 0 0 1 13.594-39.369l43.666 43.669a7.963 7.963 0 0 0 1.094 1.371l44.983 44.825a63.913 63.913 0 0 1 -78.549.034l20.869-20.869-11.314-11.314-20.869 20.869a63.66 63.66 0 0 1 -13.474-39.216z"/><path d="m72 384h16v16h-16z"/><path d="m229.354 224.487a8 8 0 0 0 11.311-.019 80 80 0 0 0 -56.665-136.468 8 8 0 0 0 -8 8v72a8 8 0 0 0 2.354 5.667zm-37.354-119.987a64.016 64.016 0 0 1 42.633 102.66l-42.633-42.482z"/><path d="m128 320h16v16h-16z"/><path d="m160 320h96v16h-96z"/><path d="m112 352h144v16h-144z"/><path d="m112 384h128v16h-128z"/><path d="m304 96h16v16h-16z"/><path d="m336 96h64v16h-64z"/><path d="m288 128h112v16h-112z"/><path d="m288 160h96v16h-96z"/><path d="m424 256a8 8 0 0 0 -8-8h-32a8 8 0 0 0 -8 8v24h-24a8 8 0 0 0 -8 8v24h-24a8 8 0 0 0 -8 8v64h-16v16h144v-16h-16zm-96 72h16v56h-16zm32-8v-24h16v88h-16zm32 64v-120h16v120z"/><path d="m392 200v32h16v-28.686l29.657-29.657a8 8 0 0 0 2.343-5.657v-48h-16v44.686l-29.657 29.657a8 8 0 0 0 -2.343 5.657z"/><path d="m424 88h16v16h-16z"/></g></svg>