<svg width="52" height="51" viewBox="0 0 52 51" fill="none" xmlns="http://www.w3.org/2000/svg">
<g clip-path="url(#clip0)">
<path d="M23.7516 24.6187C24.2782 24.3538 24.6764 24.0587 24.9493 23.7398C25.4347 23.1656 25.6743 22.4041 25.6743 21.4602C25.6743 20.5417 25.4347 19.7564 24.9556 19.0981C24.1561 18.0257 22.8029 17.4768 20.8897 17.4482H13.31V32.9202H20.3773C21.1737 32.9202 21.9114 32.852 22.5935 32.7124C23.2757 32.5712 23.8658 32.3126 24.3655 31.9351C24.8097 31.6067 25.1809 31.199 25.476 30.7183C25.9424 29.9918 26.1756 29.1684 26.1756 28.2515C26.1756 27.3631 25.9709 26.6064 25.5648 25.9846C25.1539 25.3627 24.5511 24.9074 23.7516 24.6187ZM16.4368 20.1356H19.8507C20.601 20.1356 21.2197 20.2165 21.7051 20.3767C22.2667 20.6099 22.5475 21.0842 22.5475 21.8076C22.5475 22.4565 22.3333 22.9102 21.9098 23.1656C21.483 23.421 20.9294 23.5495 20.2504 23.5495H16.4368V20.1356ZM21.8352 29.9632C21.4577 30.1457 20.9262 30.2361 20.2457 30.2361H16.4368V26.1099H20.298C20.9706 26.1147 21.4941 26.2035 21.8685 26.3701C22.5348 26.6715 22.8664 27.2235 22.8664 28.031C22.8664 28.9828 22.5237 29.6237 21.8352 29.9632Z" fill="black"/>
<path d="M36.2507 18.17H29.5291V20.0959H36.2507V18.17Z" fill="black"/>
<path d="M38.5858 25.7704C38.4462 24.8741 38.1385 24.0857 37.6594 23.4051C37.1343 22.6342 36.468 22.0694 35.6574 21.7125C34.8499 21.354 33.9409 21.1747 32.9288 21.1763C31.2298 21.1763 29.8496 21.7077 28.782 22.7627C27.7175 23.8208 27.1845 25.3421 27.1845 27.3251C27.1845 29.4397 27.7731 30.9674 28.9565 31.905C30.1352 32.8441 31.4963 33.3121 33.0414 33.3121C34.9118 33.3121 36.3665 32.7553 37.4056 31.6448C38.0703 30.9436 38.4462 30.2536 38.5287 29.5762H35.4321C35.2528 29.9109 35.045 30.1727 34.8071 30.363C34.3756 30.712 33.814 30.8865 33.1255 30.8865C32.4703 30.8865 31.9151 30.7422 31.4519 30.455C30.6872 29.995 30.2875 29.1891 30.2367 28.0421H38.6874C38.7 27.0538 38.6683 26.294 38.5858 25.7704ZM30.3129 26.0671C30.4239 25.3231 30.6936 24.7329 31.1219 24.2967C31.5502 23.862 32.1562 23.6431 32.932 23.6415C33.6474 23.6415 34.2455 23.8462 34.7325 24.257C35.2132 24.6711 35.4845 25.2723 35.54 26.0671H30.3129Z" fill="black"/>
</g>
<circle cx="26" cy="25.38" r="24.88" stroke="black"/>
<defs>
<clipPath id="clip0">
<rect x="13.31" y="12.6901" width="25.38" height="25.38" fill="white"/>
</clipPath>
</defs>
</svg>
