<svg width="79" height="79" viewBox="0 0 79 79" fill="none" xmlns="http://www.w3.org/2000/svg">
<g clip-path="url(#clip0)">
<path d="M21.0669 71.1001H57.9336V76.3668C57.9336 77.094 57.3441 77.6834 56.6169 77.6834H22.3836C21.6564 77.6834 21.0669 77.094 21.0669 76.3668V71.1001Z" fill="#A4C2F7"/>
<path d="M53.9832 71.1001V76.3668C53.9832 77.094 53.3937 77.6834 52.6665 77.6834H56.6165C57.3437 77.6834 57.9332 77.094 57.9332 76.3668V71.1001H53.9832Z" fill="#7FACFA"/>
<path d="M21.0669 76.3668H2.63356C1.90639 76.3668 1.31689 75.7773 1.31689 75.0501V72.4168C1.31689 71.6896 1.90639 71.1001 2.63356 71.1001H21.0669V76.3668Z" fill="#A4C2F7"/>
<path d="M57.9331 76.3668H76.3664C77.0936 76.3668 77.6831 75.7773 77.6831 75.0501V72.4168C77.6831 71.6896 77.0936 71.1001 76.3664 71.1001H57.9331V76.3668Z" fill="#A4C2F7"/>
<path d="M76.3665 71.1001H72.4165C73.1437 71.1001 73.7332 71.6896 73.7332 72.4168V75.0501C73.7332 75.7773 73.1437 76.3668 72.4165 76.3668H76.3665C77.0937 76.3668 77.6832 75.7773 77.6832 75.0501V72.4168C77.6832 71.6896 77.0937 71.1001 76.3665 71.1001Z" fill="#7FACFA"/>
<path d="M23.6997 39.5H55.2997V71.1H23.6997V39.5Z" fill="#E8EDFC"/>
<path d="M51.3501 39.5H55.3001V71.1H51.3501V39.5Z" fill="#CAD9FC"/>
<path d="M60.5664 28.9668V32.9168C60.5664 33.644 59.9769 34.2335 59.2498 34.2335H19.7498C19.0226 34.2335 18.4331 33.644 18.4331 32.9168V28.9668H60.5664Z" fill="#E8EDFC"/>
<path d="M56.617 28.9668V32.9168C56.617 33.644 56.0275 34.2335 55.3003 34.2335H59.2503C59.9775 34.2335 60.567 33.644 60.567 32.9168V28.9668H56.617Z" fill="#CAD9FC"/>
<path d="M60.5664 28.9669H18.4331L24.2264 22.0149C24.726 21.4109 25.4703 21.0629 26.2541 21.0669H51.5736C52.2753 21.0672 52.948 21.3468 53.4433 21.8438L60.5664 28.9669Z" fill="#E8EDFC"/>
<path d="M53.4432 21.8437C52.9479 21.3467 52.2752 21.0672 51.5735 21.0669H47.6235C48.3252 21.0672 48.9979 21.3467 49.4932 21.8437L56.6164 28.9669H60.5664L53.4432 21.8437Z" fill="#CAD9FC"/>
<path d="M21.0669 34.2334H57.9336V39.5001H21.0669V34.2334Z" fill="#CAD9FC"/>
<path d="M53.9834 34.2334H57.9334V39.5001H53.9834V34.2334Z" fill="#A4C2F7"/>
<path d="M55.3003 39.5H76.367V71.1H55.3003V39.5Z" fill="#E8EDFC"/>
<path d="M72.4165 39.5H76.3665V71.1H72.4165V39.5Z" fill="#CAD9FC"/>
<path d="M76.3664 39.5001H57.9331V34.2334H59.2498C59.9769 34.2334 60.5664 33.6439 60.5664 32.9168V31.6001H70.7838C71.783 31.6006 72.6959 32.1667 73.1406 33.0616L76.3664 39.5001Z" fill="#E8EDFC"/>
<path d="M73.1408 33.0616C72.6961 32.1667 71.7833 31.6006 70.784 31.6001H66.834C67.8333 31.6006 68.7461 32.1667 69.1908 33.0616L72.4167 39.5001H76.3667L73.1408 33.0616Z" fill="#CAD9FC"/>
<path d="M2.6333 39.5H23.7V71.1H2.6333V39.5Z" fill="#E8EDFC"/>
<path d="M21.0666 34.2334V39.5001H2.6333L5.85913 33.0616C6.30381 32.1667 7.21669 31.6006 8.21597 31.6001H18.4333V32.9168C18.4333 33.6439 19.0228 34.2334 19.75 34.2334H21.0666Z" fill="#E8EDFC"/>
<path d="M34.2334 53.9834H44.7667V71.1001H34.2334V53.9834Z" fill="#7FACFA"/>
<path d="M56.959 8.51856L51.35 10.0327L39.8292 13.1269C39.6129 13.1795 39.3871 13.1795 39.1709 13.1269L27.65 10.0327L22.041 8.51856C21.4552 8.37175 21.0444 7.84528 21.0444 7.24139C21.0444 6.63751 21.4552 6.11104 22.041 5.96423L39.1709 1.35589C39.3871 1.30324 39.6129 1.30324 39.8292 1.35589L56.959 5.96423C57.5448 6.11104 57.9556 6.63751 57.9556 7.24139C57.9556 7.84528 57.5448 8.37175 56.959 8.51856Z" fill="#A4C2F7"/>
<path d="M56.9589 5.96423L39.8291 1.35589C39.6128 1.30324 39.387 1.30324 39.1707 1.35589L37.5249 1.79829L53.0089 5.96423C53.5947 6.11104 54.0055 6.63751 54.0055 7.24139C54.0055 7.84528 53.5947 8.37175 53.0089 8.51856L47.3999 10.0327L37.5249 12.6845L39.1707 13.1269C39.387 13.1795 39.6128 13.1795 39.8291 13.1269L51.3499 10.0327L56.9589 8.51856C57.5447 8.37175 57.9555 7.84528 57.9555 7.24139C57.9555 6.63751 57.5447 6.11104 56.9589 5.96423Z" fill="#7FACFA"/>
<path d="M51.3499 10.0332V21.0669H27.6499V10.0332L39.1707 13.1274C39.387 13.18 39.6128 13.18 39.8291 13.1274L51.3499 10.0332Z" fill="#7FACFA"/>
<path d="M2.63356 76.3668H6.58356C5.85639 76.3668 5.26689 75.7773 5.26689 75.0501V72.4168C5.26689 71.6896 5.85639 71.1001 6.58356 71.1001V39.5001L9.80939 33.0616C10.2541 32.1667 11.167 31.6006 12.1662 31.6001H8.21623C7.21695 31.6006 6.30407 32.1667 5.85939 33.0616L2.63356 39.5001V71.1001C1.90639 71.1001 1.31689 71.6896 1.31689 72.4168V75.0501C1.31689 75.7773 1.90639 76.3668 2.63356 76.3668Z" fill="white"/>
<path d="M1.31689 60.5669H3.95023V71.1002H1.31689V60.5669Z" fill="white"/>
<path d="M2.65969 67.1504C1.93252 67.1541 1.34008 66.5675 1.33644 65.8403C1.33281 65.1132 1.91935 64.5207 2.64653 64.5171H2.65969C3.38687 64.5171 3.97636 65.1066 3.97636 65.8338C3.97636 66.5609 3.38687 67.1504 2.65969 67.1504Z" fill="#4590FF"/>
<path d="M77.6833 70.1501V39.5008C77.6797 39.2971 77.6278 39.0972 77.5319 38.9175H77.5451L74.3219 32.4724C73.6582 31.1288 72.2879 30.2799 70.7893 30.2841H61.8833V28.9675C61.8833 28.6183 61.7445 28.2834 61.4976 28.0366L54.3691 20.9081C53.8953 20.4392 53.3092 20.0997 52.6667 19.922V11.041L55.3 10.334V13.523V13.5322C55.2985 14.8842 55.9743 16.1472 57.0999 16.8963C57.4913 17.1573 57.9922 17.1898 58.414 16.9814C58.8357 16.773 59.1143 16.3554 59.1447 15.8859C59.1751 15.4164 58.9528 14.9664 58.5614 14.7053C58.1686 14.4443 57.9327 14.0038 57.9333 13.5322V13.523V9.51108C58.855 8.97874 59.3656 7.94395 59.2273 6.88864C59.089 5.83333 58.329 4.96502 57.3013 4.68813L40.1768 0.0903286C39.7334 -0.0281564 39.2666 -0.0281564 38.8232 0.0903286L21.6987 4.68813C20.547 5.00253 19.7482 6.04868 19.7482 7.24246C19.7482 8.43624 20.547 9.48238 21.6987 9.79679L26.3333 11.041V19.7508H26.2504C25.0798 19.7513 23.9701 20.2724 23.222 21.1728L17.4287 28.1248C17.2291 28.3604 17.1187 28.6587 17.1167 28.9675V30.2841H8.21073C6.71333 30.2789 5.34324 31.1256 4.67812 32.4672L1.45492 38.9122H1.46808C1.37138 39.0935 1.31946 39.2953 1.31667 39.5008V60.5674C1.31667 61.2946 1.90616 61.8841 2.63333 61.8841C3.36051 61.8841 3.95 61.2946 3.95 60.5674V40.8174H22.3833V69.7841H2.63333C1.17898 69.7841 0 70.9631 0 72.4174V75.0508C0 76.5051 1.17898 77.6841 2.63333 77.6841H20.116C20.5827 78.4962 21.4468 78.9979 22.3833 79.0008H56.6167C57.5532 78.9979 58.4173 78.4962 58.884 77.6841H76.3667C77.821 77.6841 79 76.5051 79 75.0508V72.4174C78.9972 71.4809 78.4954 70.6168 77.6833 70.1501ZM19.75 75.0508H2.63333V72.4174H19.75V75.0508ZM61.8833 32.9174H70.7893C71.2884 32.9159 71.7449 33.1983 71.9664 33.6456L74.2363 38.1841H59.25V35.5508C60.7044 35.5508 61.8833 34.3718 61.8833 32.9174ZM22.3833 7.23193L39.5 2.63413L56.6351 7.24246H56.618L39.5066 11.8508L22.3833 7.23193ZM50.0333 11.7481V19.7508H28.9667V11.7481L38.8232 14.3946C39.2665 14.5139 39.7335 14.5139 40.1768 14.3946L50.0333 11.7481ZM25.2392 22.8581C25.4892 22.5579 25.8597 22.3843 26.2504 22.3841H51.5752C51.9248 22.3838 52.2602 22.5226 52.5074 22.7699L57.3882 27.6508H21.2444L25.2392 22.8581ZM19.75 38.1841H4.7637L7.03363 33.6456C7.25507 33.1983 7.71163 32.9159 8.21073 32.9174H17.1167C17.1167 34.3718 18.2957 35.5508 19.75 35.5508V38.1841ZM19.75 32.9174V30.2841H59.25V32.9174H19.75ZM44.7667 52.6674H34.2333C33.5062 52.6674 32.9167 53.2569 32.9167 53.9841V69.7841H25.0167V40.8174H53.9833V69.7841H46.0833V53.9841C46.0833 53.2569 45.4938 52.6674 44.7667 52.6674ZM43.45 55.3008V69.7841H35.55V55.3008H43.45ZM22.3833 38.1841V35.5508H56.6167V38.1841H22.3833ZM22.3833 76.3674V72.4174H56.6167V76.3674H22.3833ZM57.9333 69.7841H56.6167V40.8174H75.05V69.7841H57.9333ZM76.3667 75.0508H59.25V72.4174H76.3667V75.0508Z" fill="#4590FF"/>
<path d="M35.5501 43.4502C34.8229 43.4502 34.2334 44.0397 34.2334 44.7669V47.4002C34.2334 48.1274 34.8229 48.7169 35.5501 48.7169C36.2772 48.7169 36.8667 48.1274 36.8667 47.4002V44.7669C36.8667 44.0397 36.2772 43.4502 35.5501 43.4502Z" fill="#4590FF"/>
<path d="M17.117 50.0338C17.8441 50.0338 18.4336 49.4443 18.4336 48.7171V46.0838C18.4336 45.3566 17.8441 44.7671 17.117 44.7671C16.3898 44.7671 15.8003 45.3566 15.8003 46.0838V48.7171C15.8003 49.4443 16.3898 50.0338 17.117 50.0338Z" fill="#4590FF"/>
<path d="M9.21657 50.0338C9.94375 50.0338 10.5332 49.4443 10.5332 48.7171V46.0838C10.5332 45.3566 9.94375 44.7671 9.21657 44.7671C8.48939 44.7671 7.8999 45.3566 7.8999 46.0838V48.7171C7.8999 49.4443 8.48939 50.0338 9.21657 50.0338Z" fill="#4590FF"/>
<path d="M15.8003 56.6165C15.8003 57.3437 16.3898 57.9332 17.117 57.9332C17.8441 57.9332 18.4336 57.3437 18.4336 56.6165V53.9832C18.4336 53.256 17.8441 52.6665 17.117 52.6665C16.3898 52.6665 15.8003 53.256 15.8003 53.9832V56.6165Z" fill="#4590FF"/>
<path d="M7.8999 56.6165C7.8999 57.3437 8.48939 57.9332 9.21657 57.9332C9.94375 57.9332 10.5332 57.3437 10.5332 56.6165V53.9832C10.5332 53.256 9.94375 52.6665 9.21657 52.6665C8.48939 52.6665 7.8999 53.256 7.8999 53.9832V56.6165Z" fill="#4590FF"/>
<path d="M15.8003 64.5169C15.8003 65.2441 16.3898 65.8336 17.117 65.8336C17.8441 65.8336 18.4336 65.2441 18.4336 64.5169V61.8836C18.4336 61.1564 17.8441 60.5669 17.117 60.5669C16.3898 60.5669 15.8003 61.1564 15.8003 61.8836V64.5169Z" fill="#4590FF"/>
<path d="M7.8999 64.5169C7.8999 65.2441 8.48939 65.8336 9.21657 65.8336C9.94375 65.8336 10.5332 65.2441 10.5332 64.5169V61.8836C10.5332 61.1564 9.94375 60.5669 9.21657 60.5669C8.48939 60.5669 7.8999 61.1564 7.8999 61.8836V64.5169Z" fill="#4590FF"/>
<path d="M69.7835 44.7671C69.0563 44.7671 68.4668 45.3566 68.4668 46.0838V48.7171C68.4668 49.4443 69.0563 50.0338 69.7835 50.0338C70.5106 50.0338 71.1001 49.4443 71.1001 48.7171V46.0838C71.1001 45.3566 70.5106 44.7671 69.7835 44.7671Z" fill="#4590FF"/>
<path d="M61.8836 44.7671C61.1564 44.7671 60.5669 45.3566 60.5669 46.0838V48.7171C60.5669 49.4443 61.1564 50.0338 61.8836 50.0338C62.6107 50.0338 63.2002 49.4443 63.2002 48.7171V46.0838C63.2002 45.3566 62.6107 44.7671 61.8836 44.7671Z" fill="#4590FF"/>
<path d="M69.7835 52.6665C69.0563 52.6665 68.4668 53.256 68.4668 53.9832V56.6165C68.4668 57.3437 69.0563 57.9332 69.7835 57.9332C70.5106 57.9332 71.1001 57.3437 71.1001 56.6165V53.9832C71.1001 53.256 70.5106 52.6665 69.7835 52.6665Z" fill="#4590FF"/>
<path d="M61.8836 52.6665C61.1564 52.6665 60.5669 53.256 60.5669 53.9832V56.6165C60.5669 57.3437 61.1564 57.9332 61.8836 57.9332C62.6107 57.9332 63.2002 57.3437 63.2002 56.6165V53.9832C63.2002 53.256 62.6107 52.6665 61.8836 52.6665Z" fill="#4590FF"/>
<path d="M69.7835 60.5669C69.0563 60.5669 68.4668 61.1564 68.4668 61.8836V64.5169C68.4668 65.2441 69.0563 65.8336 69.7835 65.8336C70.5106 65.8336 71.1001 65.2441 71.1001 64.5169V61.8836C71.1001 61.1564 70.5106 60.5669 69.7835 60.5669Z" fill="#4590FF"/>
<path d="M61.8836 60.5669C61.1564 60.5669 60.5669 61.1564 60.5669 61.8836V64.5169C60.5669 65.2441 61.1564 65.8336 61.8836 65.8336C62.6107 65.8336 63.2002 65.2441 63.2002 64.5169V61.8836C63.2002 61.1564 62.6107 60.5669 61.8836 60.5669Z" fill="#4590FF"/>
<path d="M43.45 43.4502C42.7228 43.4502 42.1333 44.0397 42.1333 44.7669V47.4002C42.1333 48.1274 42.7228 48.7169 43.45 48.7169C44.1771 48.7169 44.7666 48.1274 44.7666 47.4002V44.7669C44.7666 44.0397 44.1771 43.4502 43.45 43.4502Z" fill="#4590FF"/>
</g>
<defs>
<clipPath id="clip0">
<rect width="79" height="79" fill="white"/>
</clipPath>
</defs>
</svg>
