<svg width="80" height="80" viewBox="0 0 80 80" fill="none" xmlns="http://www.w3.org/2000/svg">
<path d="M60.2375 62.4625C60.1498 61.437 60.2658 60.4043 60.5791 59.4239C60.8923 58.4434 61.3965 57.5347 62.0625 56.75L58.3625 53.05L55.5 50.1875C54.7955 49.483 54.3997 48.5275 54.3997 47.5312C54.3997 46.535 54.7955 45.5795 55.5 44.875C56.2045 44.1705 57.16 43.7747 58.1562 43.7747C59.1525 43.7747 60.108 44.1705 60.8125 44.875L61.7875 45.85L66.25 50.3125V3.75H16.25V62.5H60.2125L60.2375 62.4625ZM31.25 55H23.75V47.5H31.25V55ZM31.25 42.5H23.75V35H31.25V42.5ZM31.25 30H23.75V22.5H31.25V30ZM23.75 16.25V8.75H58.75V16.25H23.75Z" fill="#E8EDFC"/>
<path d="M58.75 17.5H23.75C23.4185 17.5 23.1005 17.3683 22.8661 17.1339C22.6317 16.8995 22.5 16.5815 22.5 16.25V8.75C22.5 8.41848 22.6317 8.10054 22.8661 7.86612C23.1005 7.6317 23.4185 7.5 23.75 7.5H58.75C59.0815 7.5 59.3995 7.6317 59.6339 7.86612C59.8683 8.10054 60 8.41848 60 8.75V16.25C60 16.5815 59.8683 16.8995 59.6339 17.1339C59.3995 17.3683 59.0815 17.5 58.75 17.5ZM25 15H57.5V10H25V15Z" fill="#4590FF"/>
<path d="M23.75 31.2503H31.25C31.5815 31.2503 31.8995 31.1186 32.1339 30.8842C32.3683 30.6497 32.5 30.3318 32.5 30.0003C32.5 29.6687 32.3683 29.3508 32.1339 29.1164C31.8995 28.882 31.5815 28.7503 31.25 28.7503H25V23.7503H30.7325L28.75 25.7328L27.1338 24.1165C27.0184 23.9971 26.8805 23.9019 26.728 23.8364C26.5755 23.7709 26.4115 23.7364 26.2455 23.735C26.0795 23.7335 25.9149 23.7651 25.7613 23.828C25.6077 23.8908 25.4681 23.9837 25.3508 24.101C25.2334 24.2184 25.1406 24.358 25.0777 24.5116C25.0149 24.6652 24.9832 24.8298 24.9847 24.9958C24.9861 25.1617 25.0206 25.3258 25.0861 25.4783C25.1516 25.6308 25.2469 25.7687 25.3662 25.884L27.8662 28.384C28.1007 28.6184 28.4185 28.75 28.75 28.75C29.0815 28.75 29.3993 28.6184 29.6338 28.384L35.8838 22.134C36.1115 21.8983 36.2374 21.5825 36.2346 21.2548C36.2317 20.927 36.1003 20.6135 35.8685 20.3817C35.6368 20.15 35.3232 20.0185 34.9955 20.0157C34.6678 20.0128 34.352 20.1388 34.1163 20.3665L32.4138 22.069C32.326 21.8304 32.1677 21.6242 31.9597 21.4779C31.7518 21.3316 31.5042 21.2522 31.25 21.2503H23.75C23.4185 21.2503 23.1005 21.382 22.8661 21.6164C22.6317 21.8508 22.5 22.1687 22.5 22.5003V30.0003C22.5 30.3318 22.6317 30.6497 22.8661 30.8842C23.1005 31.1186 23.4185 31.2503 23.75 31.2503Z" fill="#4590FF"/>
<path d="M34.1163 32.8665L32.4138 34.569C32.326 34.3304 32.1677 34.1242 31.9597 33.9779C31.7518 33.8316 31.5042 33.7522 31.25 33.7503H23.75C23.4185 33.7503 23.1005 33.882 22.8661 34.1164C22.6317 34.3508 22.5 34.6687 22.5 35.0003V42.5003C22.5 42.8318 22.6317 43.1497 22.8661 43.3842C23.1005 43.6186 23.4185 43.7503 23.75 43.7503H31.25C31.5815 43.7503 31.8995 43.6186 32.1339 43.3842C32.3683 43.1497 32.5 42.8318 32.5 42.5003C32.5 42.1687 32.3683 41.8508 32.1339 41.6164C31.8995 41.382 31.5815 41.2503 31.25 41.2503H25V36.2503H30.7325L28.75 38.2328L27.1338 36.6165C27.0184 36.4971 26.8805 36.4019 26.728 36.3364C26.5755 36.2709 26.4115 36.2364 26.2455 36.235C26.0795 36.2335 25.9149 36.2651 25.7613 36.328C25.6077 36.3908 25.4681 36.4837 25.3508 36.601C25.2334 36.7184 25.1406 36.858 25.0777 37.0116C25.0149 37.1652 24.9832 37.3298 24.9847 37.4958C24.9861 37.6617 25.0206 37.8258 25.0861 37.9783C25.1516 38.1308 25.2469 38.2687 25.3662 38.384L27.8662 40.884C28.1007 41.1184 28.4185 41.25 28.75 41.25C29.0815 41.25 29.3993 41.1184 29.6338 40.884L35.8838 34.634C36.1115 34.3983 36.2374 34.0825 36.2346 33.7548C36.2317 33.427 36.1003 33.1135 35.8685 32.8817C35.6368 32.65 35.3232 32.5185 34.9955 32.5157C34.6678 32.5128 34.352 32.6388 34.1163 32.8665Z" fill="#4590FF"/>
<path d="M34.1163 45.3665L32.4138 47.069C32.326 46.8304 32.1677 46.6242 31.9597 46.4779C31.7518 46.3316 31.5042 46.2522 31.25 46.2503H23.75C23.4185 46.2503 23.1005 46.382 22.8661 46.6164C22.6317 46.8508 22.5 47.1687 22.5 47.5003V55.0003C22.5 55.3318 22.6317 55.6497 22.8661 55.8842C23.1005 56.1186 23.4185 56.2503 23.75 56.2503H31.25C31.5815 56.2503 31.8995 56.1186 32.1339 55.8842C32.3683 55.6497 32.5 55.3318 32.5 55.0003C32.5 54.6687 32.3683 54.3508 32.1339 54.1164C31.8995 53.882 31.5815 53.7503 31.25 53.7503H25V48.7503H30.7325L28.75 50.7328L27.1338 49.1165C27.0184 48.9971 26.8805 48.9019 26.728 48.8364C26.5755 48.7709 26.4115 48.7364 26.2455 48.735C26.0795 48.7335 25.9149 48.7651 25.7613 48.828C25.6077 48.8908 25.4681 48.9837 25.3508 49.101C25.2334 49.2184 25.1406 49.358 25.0777 49.5116C25.0149 49.6652 24.9832 49.8298 24.9847 49.9958C24.9861 50.1617 25.0206 50.3258 25.0861 50.4783C25.1516 50.6308 25.2469 50.7687 25.3662 50.884L27.8662 53.384C28.1007 53.6184 28.4185 53.75 28.75 53.75C29.0815 53.75 29.3993 53.6184 29.6338 53.384L35.8838 47.134C36.1115 46.8983 36.2374 46.5825 36.2346 46.2548C36.2317 45.927 36.1003 45.6135 35.8685 45.3817C35.6368 45.15 35.3232 45.0185 34.9955 45.0157C34.6678 45.0128 34.352 45.1388 34.1163 45.3665Z" fill="#4590FF"/>
<path d="M58.75 31.25H38.75C38.4185 31.25 38.1005 31.1183 37.8661 30.8839C37.6317 30.6495 37.5 30.3315 37.5 30C37.5 29.6685 37.6317 29.3505 37.8661 29.1161C38.1005 28.8817 38.4185 28.75 38.75 28.75H58.75C59.0815 28.75 59.3995 28.8817 59.6339 29.1161C59.8683 29.3505 60 29.6685 60 30C60 30.3315 59.8683 30.6495 59.6339 30.8839C59.3995 31.1183 59.0815 31.25 58.75 31.25Z" fill="#4590FF"/>
<path d="M58.75 31.25H38.75C38.4185 31.25 38.1005 31.1183 37.8661 30.8839C37.6317 30.6495 37.5 30.3315 37.5 30C37.5 29.6685 37.6317 29.3505 37.8661 29.1161C38.1005 28.8817 38.4185 28.75 38.75 28.75H58.75C59.0815 28.75 59.3995 28.8817 59.6339 29.1161C59.8683 29.3505 60 29.6685 60 30C60 30.3315 59.8683 30.6495 59.6339 30.8839C59.3995 31.1183 59.0815 31.25 58.75 31.25Z" fill="#4590FF"/>
<path d="M50 43.75H38.75C38.4185 43.75 38.1005 43.6183 37.8661 43.3839C37.6317 43.1495 37.5 42.8315 37.5 42.5C37.5 42.1685 37.6317 41.8505 37.8661 41.6161C38.1005 41.3817 38.4185 41.25 38.75 41.25H50C50.3315 41.25 50.6495 41.3817 50.8839 41.6161C51.1183 41.8505 51.25 42.1685 51.25 42.5C51.25 42.8315 51.1183 43.1495 50.8839 43.3839C50.6495 43.6183 50.3315 43.75 50 43.75Z" fill="#4590FF"/>
<path d="M74.205 42.65L67.5 35.945V3.75C67.5 3.41848 67.3683 3.10054 67.1339 2.86612C66.8995 2.6317 66.5815 2.5 66.25 2.5H16.25C15.9185 2.5 15.6005 2.6317 15.3661 2.86612C15.1317 3.10054 15 3.41848 15 3.75V62.5C15 62.8315 15.1317 63.1495 15.3661 63.3839C15.6005 63.6183 15.9185 63.75 16.25 63.75H52.3425C51.8376 67.1123 52.607 70.5419 54.5 73.3662L55 74.1263V76.25C55 76.5815 55.1317 76.8995 55.3661 77.1339C55.6005 77.3683 55.9185 77.5 56.25 77.5C56.5815 77.5 56.8995 77.3683 57.1339 77.1339C57.3683 76.8995 57.5 76.5815 57.5 76.25V73.75C57.4999 73.5041 57.4273 73.2636 57.2913 73.0587L56.5763 71.98C54.959 69.5629 54.3507 66.6094 54.8812 63.75H59.145C59.4382 65.1431 60.0534 66.4484 60.9412 67.5612L61.5287 68.2863C61.6304 68.4185 61.7575 68.529 61.9025 68.6114C62.0476 68.6937 62.2076 68.7462 62.3733 68.7658C62.5389 68.7853 62.7068 68.7715 62.867 68.7252C63.0273 68.6788 63.1766 68.6009 63.3062 68.4959C63.4359 68.391 63.5432 68.2612 63.6219 68.1141C63.7006 67.967 63.749 67.8057 63.7644 67.6396C63.7798 67.4735 63.7618 67.3061 63.7114 67.1471C63.6611 66.988 63.5794 66.8407 63.4713 66.7137L62.89 65.995C61.9282 64.7937 61.4146 63.295 61.4375 61.7563C61.4603 60.2176 62.018 58.7348 63.015 57.5625C63.2195 57.3233 63.3263 57.0158 63.314 56.7014C63.3017 56.387 63.1713 56.0887 62.9488 55.8662L56.3875 49.3075C55.9222 48.8362 55.6605 48.2012 55.6586 47.5389C55.6568 46.8767 55.9149 46.2401 56.3775 45.7663C56.8569 45.3125 57.4915 45.059 58.1516 45.0576C58.8117 45.0562 59.4474 45.307 59.9287 45.7587L68.7663 54.5962C69.002 54.8239 69.3178 54.9499 69.6455 54.9471C69.9732 54.9442 70.2868 54.8128 70.5185 54.581C70.7503 54.3493 70.8817 54.0357 70.8846 53.708C70.8874 53.3803 70.7614 53.0645 70.5337 52.8288L67.5 49.795V39.48L72.4375 44.4175C73.2523 45.2284 73.8982 46.1927 74.3381 47.2548C74.7779 48.3168 75.0029 49.4555 75 50.605V67.73C75.0016 68.9644 74.6361 70.1714 73.95 71.1975L73.1338 72.4238C72.7204 73.0447 72.5027 73.7753 72.5088 74.5212L72.5175 76.2575C72.5192 76.5879 72.6516 76.9043 72.8858 77.1373C73.1201 77.3704 73.4371 77.5013 73.7675 77.5013H73.7738C74.1035 77.4983 74.4188 77.3651 74.6508 77.1307C74.8828 76.8964 75.0128 76.5798 75.0125 76.25L75 74.5075C74.9992 74.2585 75.0722 74.0149 75.21 73.8075L76.0262 72.5825C76.9881 71.1466 77.5011 69.457 77.5 67.7287V50.6038C77.5039 49.126 77.2147 47.6621 76.6491 46.2969C76.0835 44.9316 75.2528 43.6921 74.205 42.65ZM61.6888 43.9837C60.734 43.0756 59.4661 42.57 58.1484 42.5721C56.8307 42.5742 55.5644 43.0838 54.6125 43.995C53.6829 44.938 53.1618 46.209 53.1618 47.5331C53.1618 48.8573 53.6829 50.1282 54.6125 51.0712L60.4137 56.875C59.5664 58.1853 59.0721 59.6924 58.9787 61.25H17.5V5H65V47.295L61.6888 43.9837Z" fill="#4590FF"/>
<path d="M37.5 55C37.5 55.3315 37.6317 55.6495 37.8661 55.8839C38.1005 56.1183 38.4185 56.25 38.75 56.25H53.75C54.0815 56.25 54.3995 56.1183 54.6339 55.8839C54.8683 55.6495 55 55.3315 55 55C55 54.6685 54.8683 54.3505 54.6339 54.1161C54.3995 53.8817 54.0815 53.75 53.75 53.75H38.75C38.4185 53.75 38.1005 53.8817 37.8661 54.1161C37.6317 54.3505 37.5 54.6685 37.5 55Z" fill="#4590FF"/>
<path d="M58.75 26.25H38.75C38.4185 26.25 38.1005 26.1183 37.8661 25.8839C37.6317 25.6495 37.5 25.3315 37.5 25C37.5 24.6685 37.6317 24.3505 37.8661 24.1161C38.1005 23.8817 38.4185 23.75 38.75 23.75H58.75C59.0815 23.75 59.3995 23.8817 59.6339 24.1161C59.8683 24.3505 60 24.6685 60 25C60 25.3315 59.8683 25.6495 59.6339 25.8839C59.3995 26.1183 59.0815 26.25 58.75 26.25Z" fill="#4590FF"/>
<path d="M58.75 38.75H38.75C38.4185 38.75 38.1005 38.6183 37.8661 38.3839C37.6317 38.1495 37.5 37.8315 37.5 37.5C37.5 37.1685 37.6317 36.8505 37.8661 36.6161C38.1005 36.3817 38.4185 36.25 38.75 36.25H58.75C59.0815 36.25 59.3995 36.3817 59.6339 36.6161C59.8683 36.8505 60 37.1685 60 37.5C60 37.8315 59.8683 38.1495 59.6339 38.3839C59.3995 38.6183 59.0815 38.75 58.75 38.75Z" fill="#4590FF"/>
<path d="M50 51.25H38.75C38.4185 51.25 38.1005 51.1183 37.8661 50.8839C37.6317 50.6495 37.5 50.3315 37.5 50C37.5 49.6685 37.6317 49.3505 37.8661 49.1161C38.1005 48.8817 38.4185 48.75 38.75 48.75H50C50.3315 48.75 50.6495 48.8817 50.8839 49.1161C51.1183 49.3505 51.25 49.6685 51.25 50C51.25 50.3315 51.1183 50.6495 50.8839 50.8839C50.6495 51.1183 50.3315 51.25 50 51.25Z" fill="#4590FF"/>
</svg>
