<svg width="51" height="51" viewBox="0 0 51 51" fill="none" xmlns="http://www.w3.org/2000/svg">
<path d="M29.6 16.4971H21.6396C18.9363 16.4971 16.7369 18.6965 16.7369 21.3998V29.3602C16.7369 32.0637 18.9363 34.263 21.6396 34.263H29.6C32.3035 34.263 34.5029 32.0636 34.5029 29.3602V21.3998C34.503 18.6965 32.3035 16.4971 29.6 16.4971ZM32.9267 29.3602C32.9267 31.1945 31.4344 32.6867 29.6001 32.6867H21.6396C19.8054 32.6868 18.3132 31.1945 18.3132 29.3602V21.3998C18.3132 19.5657 19.8054 18.0733 21.6396 18.0733H29.6C31.4343 18.0733 32.9266 19.5657 32.9266 21.3998V29.3602H32.9267Z" fill="black"/>
<path d="M25.6199 20.8024C23.0957 20.8024 21.0421 22.8559 21.0421 25.3802C21.0421 27.9043 23.0957 29.9578 25.6199 29.9578C28.1442 29.9578 30.1978 27.9043 30.1978 25.3802C30.1978 22.8559 28.1442 20.8024 25.6199 20.8024ZM25.6199 28.3814C23.965 28.3814 22.6184 27.0351 22.6184 25.3801C22.6184 23.725 23.9649 22.3785 25.6199 22.3785C27.275 22.3785 28.6215 23.725 28.6215 25.3801C28.6215 27.0351 27.2749 28.3814 25.6199 28.3814Z" fill="black"/>
<path d="M30.3897 19.4658C30.0861 19.4658 29.7877 19.5888 29.5732 19.8042C29.3577 20.0186 29.2338 20.317 29.2338 20.6218C29.2338 20.9256 29.3578 21.2239 29.5732 21.4393C29.7876 21.6537 30.0861 21.7777 30.3897 21.7777C30.6945 21.7777 30.9919 21.6537 31.2073 21.4393C31.4227 21.2239 31.5457 20.9255 31.5457 20.6218C31.5457 20.317 31.4227 20.0186 31.2073 19.8042C30.9929 19.5888 30.6945 19.4658 30.3897 19.4658Z" fill="black"/>
<circle cx="25.62" cy="25.38" r="24.88" stroke="black"/>
</svg>
