<svg width="51" height="51" viewBox="0 0 51 51" fill="none" xmlns="http://www.w3.org/2000/svg">
<circle cx="25.38" cy="25.38" r="24.88" stroke="black"/>
<g clip-path="url(#clip0)">
<path d="M20.5336 22.4076H16.7167V33.8698H20.5336V22.4076Z" fill="black"/>
<path d="M33.0601 23.4546C32.2583 22.5794 31.1979 22.1417 29.8794 22.1417C29.3936 22.1417 28.952 22.2015 28.5549 22.3211C28.1578 22.4406 27.8224 22.6083 27.5486 22.8242C27.275 23.0401 27.057 23.2406 26.8952 23.4256C26.7413 23.6013 26.5909 23.8059 26.4441 24.0375V22.4076H22.6385L22.6502 22.9628C22.658 23.3331 22.6619 24.4742 22.6619 26.3864C22.6619 28.2988 22.6542 30.7932 22.6387 33.8699H26.4441V27.4736C26.4441 27.0804 26.4862 26.7682 26.5712 26.5367C26.7333 26.1432 26.9778 25.8138 27.3057 25.5479C27.6336 25.2816 28.0402 25.1486 28.5262 25.1486C29.1891 25.1486 29.677 25.378 29.9894 25.8368C30.3016 26.2956 30.4577 26.9298 30.4577 27.7395V33.8696H34.2631V27.3003C34.2628 25.6114 33.8621 24.3296 33.0601 23.4546Z" fill="black"/>
<path d="M18.6483 16.8904C18.0084 16.8904 17.4899 17.0775 17.0927 17.4514C16.6955 17.8254 16.497 18.2975 16.497 18.8682C16.497 19.431 16.6898 19.9015 17.0753 20.2792C17.4608 20.657 17.9697 20.846 18.602 20.846H18.6252C19.2729 20.846 19.7954 20.6572 20.1925 20.2792C20.5895 19.9015 20.7842 19.4311 20.7765 18.8682C20.7689 18.2975 20.5721 17.8254 20.1867 17.4514C19.8013 17.0773 19.2883 16.8904 18.6483 16.8904Z" fill="black"/>
</g>
<defs>
<clipPath id="clip0">
<rect x="16.497" y="16.4971" width="17.766" height="17.766" fill="white"/>
</clipPath>
</defs>
</svg>
