<svg width="80" height="80" viewBox="0 0 80 80" fill="none" xmlns="http://www.w3.org/2000/svg">
<path d="M40 0C17.912 0 0 17.912 0 40C0 62.088 17.912 80 40 80C62.088 80 80 62.088 80 40C80 17.912 62.088 0 40 0ZM28.3765 60.4688H18.6346V31.1603H28.3765V60.4688ZM23.5059 27.1582H23.4424C20.1733 27.1582 18.0591 24.9078 18.0591 22.0953C18.0591 19.2194 20.238 17.0312 23.5706 17.0312C26.9031 17.0312 28.9539 19.2194 29.0173 22.0953C29.0173 24.9078 26.9031 27.1582 23.5059 27.1582ZM63.5034 60.4688H53.7628V44.7894C53.7628 40.849 52.3523 38.1616 48.8275 38.1616C46.1365 38.1616 44.5337 39.9744 43.8293 41.7242C43.5718 42.3505 43.5089 43.2257 43.5089 44.1016V60.4688H33.7677C33.7677 60.4688 33.8953 33.9099 33.7677 31.1603H43.5089V35.3101C44.8035 33.313 47.1198 30.4724 52.2882 30.4724C58.6975 30.4724 63.5034 34.6613 63.5034 43.6633V60.4688Z" fill="#4590FF"/>
</svg>
