<svg width="54" height="54" viewBox="0 0 54 54" fill="none" xmlns="http://www.w3.org/2000/svg">
<g clip-path="url(#clip0)">
<path d="M51.412 24.4783C50.9743 23.9171 50.1649 23.8173 49.6035 24.2547C49.0425 24.6924 48.9424 25.502 49.38 26.0632C49.8101 26.6148 49.8101 27.385 49.38 27.9366C46.2281 31.9777 42.1501 35.0142 37.559 36.8501C39.972 34.2664 41.4496 30.8019 41.4496 26.9999C41.4496 23.2128 39.9844 19.7607 37.5919 17.1825C40.2448 18.2492 42.7386 19.7152 44.9712 21.5458C45.2482 21.7728 45.5244 22.0083 45.7928 22.2459C46.3256 22.7176 47.1398 22.668 47.6116 22.1353C48.0833 21.6026 48.0338 20.7882 47.501 20.3165C47.2086 20.0574 46.907 19.8006 46.605 19.553C41.0974 15.0374 34.1347 12.5505 26.9998 12.5505C17.3976 12.5505 8.49975 16.8981 2.58769 24.4784C1.42975 25.9631 1.42975 28.0369 2.58769 29.5217C8.49975 37.1021 17.3976 41.4496 26.9998 41.4496C36.6018 41.4496 45.4998 37.1021 51.412 29.5217C52.57 28.0367 52.57 25.963 51.412 24.4783ZM4.61976 27.9366C4.18966 27.385 4.18966 26.6148 4.61976 26.0632C7.77085 22.0229 11.8481 18.9868 16.4383 17.1507C14.0278 19.7331 12.5501 23.1962 12.5501 26.9999C12.5501 30.8021 14.0277 34.2667 16.4382 36.8492C11.8481 35.0131 7.77075 31.9769 4.61976 27.9366ZM27.0155 38.8722C27.0104 38.8722 27.0052 38.8723 26.9999 38.8723C26.9946 38.8723 26.9896 38.8722 26.9843 38.8722C20.4445 38.8637 15.1271 33.5416 15.1271 26.9999C15.1271 20.4582 20.4444 15.136 26.9843 15.1276C26.9895 15.1276 26.9946 15.1275 26.9999 15.1275C27.0039 15.1275 27.0079 15.1276 27.0119 15.1276C33.5533 15.134 38.8726 20.4569 38.8726 26.9999C38.8726 33.5416 33.5553 38.8637 27.0155 38.8722Z" fill="black"/>
<path d="M27.0002 21.5322C23.9852 21.5322 21.5327 23.9847 21.5327 26.9997C21.5327 30.0148 23.9852 32.4672 27.0002 32.4672C30.0153 32.4672 32.4677 30.0148 32.4677 26.9997C32.4677 23.9847 30.0153 21.5322 27.0002 21.5322ZM27.0002 29.8902C25.4068 29.8902 24.1097 28.5931 24.1097 26.9997C24.1097 25.4063 25.4068 24.1092 27.0002 24.1092C28.5936 24.1092 29.8907 25.4063 29.8907 26.9997C29.8907 28.5931 28.5936 29.8902 27.0002 29.8902Z" fill="black"/>
<path d="M26.9999 0C26.2882 0 25.7114 0.576809 25.7114 1.28851V6.12035C25.7114 6.83205 26.2882 7.40886 26.9999 7.40886C27.7116 7.40886 28.2884 6.83205 28.2884 6.12035V1.28851C28.2884 0.576809 27.7115 0 26.9999 0Z" fill="black"/>
<path d="M26.9999 46.5911C26.2882 46.5911 25.7114 47.1679 25.7114 47.8796V52.7114C25.7114 53.4231 26.2882 53.9999 26.9999 53.9999C27.7116 53.9999 28.2884 53.4231 28.2884 52.7114V47.8796C28.2884 47.1679 27.7114 46.5911 26.9999 46.5911Z" fill="black"/>
<path d="M46.0922 7.90783C45.589 7.40475 44.7733 7.40475 44.2698 7.90783L41.8657 10.312C41.3625 10.8152 41.3625 11.631 41.8657 12.1344C42.1173 12.3859 42.4469 12.5118 42.7768 12.5118C43.1065 12.5118 43.4362 12.3859 43.688 12.1344L46.0923 9.73023C46.5954 9.22703 46.5954 8.41123 46.0922 7.90783Z" fill="black"/>
<path d="M12.1347 41.8653C11.6316 41.3623 10.8158 41.3622 10.3125 41.8653L7.90816 44.2695C7.40496 44.7727 7.40496 45.5885 7.90816 46.0919C8.1598 46.3434 8.4896 46.4692 8.8193 46.4692C9.149 46.4692 9.47869 46.3434 9.73044 46.0919L12.1348 43.6877C12.6379 43.1844 12.6379 42.3687 12.1347 41.8653Z" fill="black"/>
<path d="M12.1347 10.3121L9.7303 7.90783C9.22711 7.40475 8.41131 7.40475 7.90812 7.90783C7.40492 8.41123 7.40503 9.22693 7.90812 9.73023L10.3125 12.1344C10.564 12.3859 10.8939 12.5118 11.2236 12.5118C11.5533 12.5118 11.8832 12.3859 12.1348 12.1344C12.6379 11.631 12.6378 10.8153 12.1347 10.3121Z" fill="black"/>
<path d="M46.0917 44.2695L43.6876 41.8654C43.1842 41.3623 42.3686 41.3623 41.8652 41.8654C41.362 42.3688 41.362 43.1844 41.8652 43.6877L44.2696 46.0919C44.5212 46.3434 44.851 46.4693 45.1807 46.4693C45.5104 46.4693 45.8401 46.3434 46.0918 46.0919C46.595 45.5885 46.595 44.7727 46.0917 44.2695Z" fill="black"/>
</g>
<defs>
<clipPath id="clip0">
<rect width="54" height="54" fill="white"/>
</clipPath>
</defs>
</svg>
