<svg width="52" height="52" viewBox="0 0 52 52" fill="none" xmlns="http://www.w3.org/2000/svg">
<path d="M26.0398 11.2081C18.6799 11.2081 12.667 17.2211 12.667 24.5809C12.667 28.4292 14.3506 32.1332 17.1887 34.6346C19.3053 36.7511 19.1129 41.2729 19.0648 41.321C19.0648 41.5615 19.1129 41.7539 19.3053 41.9463C19.4496 42.0906 19.6901 42.1869 19.8825 42.1869H32.149C32.3895 42.1869 32.5819 42.0906 32.7262 41.9463C32.8705 41.802 32.9667 41.5615 32.9667 41.321C32.9667 41.2729 32.7262 36.7511 34.8428 34.6346C34.8909 34.5865 34.939 34.5384 34.9871 34.4903C37.7771 31.9408 39.4126 28.333 39.4126 24.5809C39.4126 17.2211 33.3996 11.2081 26.0398 11.2081ZM33.7364 33.3839C33.6883 33.432 33.5921 33.5282 33.5921 33.5763C31.716 35.5967 31.3793 38.9158 31.3312 40.5032H20.7003C20.6522 38.9158 20.3155 35.4524 18.2951 33.3839C15.7456 31.1711 14.2544 27.9482 14.2544 24.5328C14.2544 18.0388 19.4977 12.7955 25.9917 12.7955C32.4857 12.7955 37.729 18.0388 37.729 24.5328C37.729 27.9482 36.2859 31.1711 33.7364 33.3839Z" fill="white"/>
<path d="M25.9916 14.6235C25.5587 14.6235 25.1738 15.0084 25.1738 15.4413C25.1738 15.8742 25.5587 16.2591 25.9916 16.2591C30.8501 16.2591 34.7464 20.2036 34.7464 25.0139C34.7464 25.4469 35.1313 25.8317 35.5642 25.8317C35.9971 25.8317 36.382 25.4469 36.382 25.0139C36.4301 19.2896 31.764 14.6235 25.9916 14.6235Z" fill="white"/>
<path d="M31.3312 43.1008H20.6522C19.5458 43.1008 18.6318 44.0148 18.6318 45.1212C18.6318 46.2276 19.5458 47.1415 20.6522 47.1415H31.2831C32.4376 47.0934 33.3515 46.2276 33.3515 45.1212C33.3515 44.0148 32.4376 43.1008 31.3312 43.1008ZM31.3312 45.4579H20.6522C20.4598 45.4579 20.2674 45.3136 20.2674 45.0731C20.2674 44.8326 20.4117 44.6883 20.6522 44.6883H31.2831C31.4755 44.6883 31.6679 44.8326 31.6679 45.0731C31.6679 45.3136 31.5236 45.4579 31.3312 45.4579Z" fill="white"/>
<path d="M29.7438 47.9592H22.2396C21.1332 47.9592 20.2192 48.8732 20.2192 49.9796C20.2192 51.086 21.1332 51.9999 22.2396 51.9999H29.7438C30.8501 51.9999 31.7641 51.086 31.7641 49.9796C31.7641 48.8251 30.8501 47.9592 29.7438 47.9592ZM29.7438 50.3163H22.2396C22.0472 50.3163 21.8548 50.172 21.8548 49.9315C21.8548 49.691 21.9991 49.5467 22.2396 49.5467H29.7438C29.9362 49.5467 30.1286 49.691 30.1286 49.9315C30.1286 50.172 29.9362 50.3163 29.7438 50.3163Z" fill="white"/>
<path d="M25.9916 7.21554C26.4726 7.21554 26.8094 6.83071 26.8094 6.39778V0.817761C26.8094 0.384829 26.4245 0 25.9916 0C25.5587 0 25.1738 0.384829 25.1738 0.817761V6.39778C25.1738 6.83071 25.5587 7.21554 25.9916 7.21554Z" fill="white"/>
<path d="M39.6048 4.13693C39.22 3.84831 38.7389 3.99262 38.4984 4.32934L35.4198 8.94729C35.1311 9.33212 35.2274 9.86126 35.6122 10.1018C35.7565 10.198 35.9008 10.2461 36.0451 10.2461C36.3337 10.2461 36.5743 10.1018 36.7186 9.86126L39.7972 5.24331C40.0858 4.90659 39.9896 4.37745 39.6048 4.13693Z" fill="white"/>
<path d="M16.2262 10.0537C16.3705 10.0537 16.5148 10.0056 16.6592 9.90935C17.044 9.66883 17.1402 9.13969 16.8997 8.75486L13.9172 4.08881C13.6767 3.70398 13.1476 3.60777 12.7628 3.84829C12.3779 4.08881 12.2817 4.61795 12.5222 5.00278L15.5047 9.66883C15.6971 9.95745 15.9376 10.0537 16.2262 10.0537Z" fill="white"/>
<path d="M10.4059 15.1527L5.54744 12.507C5.16262 12.3146 4.63348 12.4589 4.44106 12.8437C4.20054 13.2285 4.34485 13.7577 4.77779 13.9501L9.63625 16.5958C9.78056 16.6439 9.87677 16.692 10.0211 16.692C10.3097 16.692 10.5983 16.5477 10.7426 16.2591C10.935 15.8742 10.7907 15.3451 10.4059 15.1527Z" fill="white"/>
<path d="M47.5898 12.8437C47.3974 12.4589 46.8683 12.3146 46.4834 12.507L41.5769 15.1527C41.192 15.3451 41.0477 15.8742 41.2401 16.2591C41.3844 16.5477 41.6731 16.692 41.9617 16.692C42.106 16.692 42.2503 16.6439 42.3465 16.5958L47.2531 13.9501C47.6379 13.7577 47.7822 13.2285 47.5898 12.8437Z" fill="white"/>
</svg>
