<svg id="Guide" height="512" viewBox="0 0 512 512" width="512" xmlns="http://www.w3.org/2000/svg"><path d="m349 100a150.334 150.334 0 0 0 -93 32.22 150.334 150.334 0 0 0 -93-32.22c-84.365 0-153 69.981-153 156s68.635 156 153 156a150.334 150.334 0 0 0 93-32.22 150.334 150.334 0 0 0 93 32.22c84.364 0 153-69.981 153-156s-68.635-156-153-156zm-186 300c-77.749 0-141-64.6-141-144s63.251-144 141-144a138.325 138.325 0 0 1 83.648 28.153 157.821 157.821 0 0 0 0 231.694 138.325 138.325 0 0 1 -83.648 28.153zm113.674-229.088h-41.348a144.121 144.121 0 0 1 20.674-23.048 144.121 144.121 0 0 1 20.674 23.048zm-20.674 193.224a144.293 144.293 0 0 1 -25.131-29.613h50.262a144.293 144.293 0 0 1 -25.131 29.613zm32.02-41.613h-64.04a144.855 144.855 0 0 1 -10.256-25.9h84.552a144.855 144.855 0 0 1 -10.256 25.9zm13.176-37.9h-90.396a146.9 146.9 0 0 1 -2.767-25.9h95.926a146.9 146.9 0 0 1 -2.759 25.898zm-92.892-37.9a146.18 146.18 0 0 1 3.964-25.9h87.464a146.18 146.18 0 0 1 3.964 25.9zm7.482-37.9a144.842 144.842 0 0 1 11.775-25.9h56.878a144.842 144.842 0 0 1 11.775 25.9zm133.214 191.177a138.325 138.325 0 0 1 -83.648-28.153 157.821 157.821 0 0 0 0-231.694 138.325 138.325 0 0 1 83.648-28.153c77.748 0 141 64.6 141 144s-63.251 144-141 144z" fill="rgb(0,0,0)"/></svg>