<?xml version="1.0" encoding="iso-8859-1"?>
<!-- Generator: Adobe Illustrator 19.0.0, SVG Export Plug-In . SVG Version: 6.00 Build 0)  -->
<svg version="1.1" id="Layer_1" xmlns="http://www.w3.org/2000/svg" xmlns:xlink="http://www.w3.org/1999/xlink" x="0px" y="0px"
	 viewBox="0 0 512 512" style="enable-background:new 0 0 512 512;" xml:space="preserve">
<g>
	<g>
		<g>
			<path d="M276.023,250.896l-64-117.333c-1.854-3.427-5.458-5.563-9.354-5.563h-128c-3.896,0-7.5,2.135-9.354,5.563l-64,117.333
				c-1.75,3.177-1.75,7.031,0,10.208l64,117.333c1.854,3.427,5.458,5.563,9.354,5.563h128c3.896,0,7.5-2.135,9.354-5.563l64-117.333
				C277.773,257.927,277.773,254.073,276.023,250.896z M196.336,362.667H81.003L22.815,256l58.188-106.667h115.333L254.523,256
				L196.336,362.667z"/>
			<path d="M68.628,250.896c-2.792-5.177-9.271-7.063-14.458-4.26c-5.167,2.823-7.083,9.302-4.25,14.469l40.729,74.667
				c1.917,3.552,5.583,5.563,9.354,5.563c1.729,0,3.479-0.417,5.104-1.302c5.167-2.823,7.083-9.302,4.25-14.469L68.628,250.896z"/>
			<path d="M177.336,170.667h-77.333c-5.896,0-10.667,4.771-10.667,10.667c0,5.896,4.771,10.667,10.667,10.667h77.333
				c5.896,0,10.667-4.771,10.667-10.667C188.002,175.438,183.232,170.667,177.336,170.667z"/>
			<path d="M300.065,239.958c1.917,3.323,5.438,5.375,9.271,5.375h128c3.833,0,7.354-2.052,9.271-5.375l64-112
				c1.854-3.281,1.854-7.302,0-10.583l-64-112C444.69,2.052,441.169,0,437.336,0h-128c-3.833,0-7.354,2.052-9.271,5.375l-64,112
				c-1.854,3.281-1.854,7.302,0,10.583L300.065,239.958z M315.523,21.333h115.625l57.896,101.333L431.148,224H315.523
				l-57.896-101.333L315.523,21.333z"/>
			<path d="M446.607,272.042c-1.917-3.323-5.438-5.375-9.271-5.375h-128c-3.833,0-7.354,2.052-9.271,5.375l-64,112
				c-1.854,3.281-1.854,7.302,0,10.583l64,112c1.917,3.323,5.438,5.375,9.271,5.375h128c3.833,0,7.354-2.052,9.271-5.375l64-112
				c1.854-3.281,1.854-7.302,0-10.583L446.607,272.042z M431.148,490.667H315.523l-57.896-101.333L315.523,288h115.625
				l57.896,101.333L431.148,490.667z"/>
			<path d="M412.565,448h-78.458c-5.896,0-10.667,4.771-10.667,10.667s4.771,10.667,10.667,10.667h78.458
				c5.896,0,10.667-4.771,10.667-10.667S418.461,448,412.565,448z"/>
			<path d="M407.273,310.74c-5.125,2.927-6.896,9.438-3.979,14.552l39.625,69.333c1.979,3.448,5.583,5.375,9.271,5.375
				c1.813,0,3.625-0.448,5.292-1.406c5.125-2.927,6.896-9.438,3.979-14.552l-39.625-69.333
				C418.878,309.563,412.336,307.802,407.273,310.74z"/>
		</g>
	</g>
</g>
<g>
</g>
<g>
</g>
<g>
</g>
<g>
</g>
<g>
</g>
<g>
</g>
<g>
</g>
<g>
</g>
<g>
</g>
<g>
</g>
<g>
</g>
<g>
</g>
<g>
</g>
<g>
</g>
<g>
</g>
</svg>
