<svg width="797" height="552" viewBox="0 0 797 552" fill="none" xmlns="http://www.w3.org/2000/svg">
<path d="M24.5626 247.333C12.7999 225.697 9.48215 200.453 15.2537 176.504C31.6091 108.76 78.037 -10.1396 200.913 6.6957C371.403 30.0781 420.962 35.9237 490.915 13.9962C560.868 -7.93128 681.819 -7.9053 719.709 41.7368C742.677 71.8287 820.26 206.713 770.714 253.477C721.168 300.242 794.699 392.7 796.942 441.836C799.185 490.971 728.454 497.291 639.559 498.785C550.665 500.279 33.9882 483.268 33.9882 483.268C33.9882 483.268 -32.2502 368.805 20.2129 327.918C52.6773 302.632 38.1435 272.326 24.5626 247.333Z" fill="#F8F8FF"/>
<path d="M76.254 429.729C64.8837 429.333 22.287 435.159 19.7913 437.394C19.143 437.998 9.82763 465.751 50.8166 501.624C116.394 559.015 292.868 560.976 350.063 539.146C433.039 507.469 523.963 566.867 712.436 544.134C772.665 536.873 812.915 444.434 785.533 432.451C769.138 425.306 749.509 444.265 733.024 435.945C714.05 426.352 675.602 420.357 651.798 427.716C651.338 427.841 650.944 428.139 650.699 428.549C650.454 428.958 650.378 429.447 650.485 429.913C650.593 430.378 650.876 430.783 651.276 431.043C651.675 431.304 652.16 431.398 652.628 431.308L640.091 435.315C626.16 445.707 629.297 431.899 596.619 430.119L500.269 427.735C465.821 428.775 333.273 434.614 281.413 432.535H252.89C233.857 430.152 184.486 429.021 182.71 428.963L76.254 429.729Z" fill="#F5F5FC"/>
<path d="M663.045 433.672L663.693 488.88L737.594 487.581V433.672H663.045Z" fill="#E9EDFA"/>
<path d="M721.368 487.848L721.414 433.672H716.733" fill="white"/>
<path d="M682.195 433.555C682.195 433.555 680.431 400.813 695.886 391.519C711.34 382.224 698.096 360.544 701.182 349.041C704.268 337.538 718.847 329.133 718.847 320.28C718.847 311.427 717.55 286.655 734.301 279.134C751.052 271.612 764.328 281.349 759.032 295.95C753.736 310.551 749.756 327.366 744.019 332.673C738.281 337.979 740.486 346.391 741.367 356.568C742.249 366.746 734.301 383.556 729.887 389.752C725.472 395.948 729.887 406.568 728.59 417.629C728.59 417.629 726.179 433.113 723.754 433.626C721.33 434.14 682.195 433.555 682.195 433.555Z" fill="#BAC6F2"/>
<path d="M716.707 434.562C716.707 434.562 718.652 418.973 701.428 414.583C684.204 410.192 698.965 399.858 695.516 394.396C692.067 388.934 675.803 384.933 675.803 380.756C675.803 376.58 677.281 364.772 658.553 361.199C639.825 357.627 625.038 362.252 630.95 369.188C636.862 376.125 641.322 384.127 647.707 386.647C654.093 389.167 651.649 393.142 650.663 398.007C649.678 402.872 658.546 410.835 663.479 413.777C668.413 416.72 663.479 421.766 664.957 427.027C664.957 427.027 667.648 434.386 670.351 434.633C673.054 434.88 716.707 434.562 716.707 434.562Z" fill="#BAC6F2"/>
<path d="M702.297 434.556C702.297 434.556 700.922 418.279 712.935 413.661C724.947 409.043 714.652 398.267 717.051 392.545C719.449 386.823 730.774 382.647 730.774 378.256C730.774 373.865 729.744 361.537 742.78 357.803C755.816 354.068 766.117 358.9 761.994 366.162C757.871 373.424 754.792 381.75 750.326 384.42C745.859 387.089 747.584 391.24 748.264 396.299C748.945 401.359 742.774 409.718 739.344 412.797C735.915 415.876 739.344 421.156 738.314 426.651C738.314 426.651 736.44 434.348 734.56 434.601C732.68 434.854 702.297 434.556 702.297 434.556Z" fill="#BAC6F2"/>
<path d="M440.546 70L440.93 169.54L717.409 169.156V70.7736L440.546 70Z" fill="white"/>
<path d="M490.023 101.152V113.405L603.247 112.87V101.152H490.023Z" fill="#BAC6F2"/>
<path d="M490.023 135.237V147.49L603.247 146.955V135.237H490.023Z" fill="#BAC6F2"/>
<path d="M470.886 117.678C475.583 117.678 479.39 113.863 479.39 109.158C479.39 104.452 475.583 100.638 470.886 100.638C466.19 100.638 462.383 104.452 462.383 109.158C462.383 113.863 466.19 117.678 470.886 117.678Z" fill="#BAC6F2"/>
<path d="M470.886 149.499C475.583 149.499 479.39 145.684 479.39 140.979C479.39 136.274 475.583 132.459 470.886 132.459C466.19 132.459 462.383 136.274 462.383 140.979C462.383 145.684 466.19 149.499 470.886 149.499Z" fill="#BAC6F2"/>
<path d="M701.371 114.557H634.151V147.412H701.371V114.557Z" fill="#E9EDFA"/>
<path d="M633.104 145.844C633.104 145.844 638.338 134.359 643.318 135.61C648.298 136.862 649.536 142.1 653.283 139.852C657.029 137.604 659.449 128.57 663.082 127.158C668.263 125.138 669.974 127.366 676.954 131.363C683.933 135.361 686.898 134.479 689.773 131.53C692.401 128.83 697.287 121.504 702.697 118.243" stroke="#BAC6F2" stroke-width="3" stroke-linecap="round" stroke-linejoin="round"/>
<path d="M419.01 71.2876H319V166.544H419.01V71.2876Z" fill="white"/>
<path d="M367.694 154.878C381.983 154.878 393.567 143.271 393.567 128.954C393.567 114.637 381.983 103.031 367.694 103.031C353.405 103.031 341.821 114.637 341.821 128.954C341.821 143.271 353.405 154.878 367.694 154.878Z" stroke="#BAC6F2" stroke-width="6" stroke-linecap="round" stroke-linejoin="round"/>
<path d="M351.013 79.5115H325.57V85.5393H351.013V79.5115Z" fill="#BAC6F2"/>
<path d="M351.013 88.9661H325.57V94.9939H351.013V88.9661Z" fill="#BAC6F2"/>
</svg>
