<svg width="52" height="52" viewBox="0 0 52 52" fill="none" xmlns="http://www.w3.org/2000/svg">
<g clip-path="url(#clip0)">
<path d="M51.9108 16.2421C51.1518 7.88805 45.2388 1.82705 37.8388 1.82705C32.9088 1.82705 28.3948 4.48005 25.8548 8.73205C23.3378 4.42505 19.0088 1.82605 14.1578 1.82605C6.75876 1.82605 0.844763 7.88705 0.0867633 16.241C0.0267633 16.61 -0.219237 18.552 0.528763 21.719C1.60676 26.287 4.09676 30.442 7.72776 33.732L25.8428 50.1711L44.2688 33.7331C47.8998 30.4421 50.3898 26.288 51.4678 21.719C52.2158 18.553 51.9698 16.6111 51.9108 16.2421ZM49.5208 21.261C48.5368 25.433 46.2558 29.234 42.9308 32.246L25.8548 47.481L9.07176 32.25C5.74076 29.232 3.46076 25.432 2.47576 21.26C1.76776 18.2631 2.05876 16.57 2.05976 16.559L2.07476 16.458C2.72476 9.13905 7.80576 3.82605 14.1578 3.82605C18.8448 3.82605 22.9708 6.70605 24.9288 11.341L25.8498 13.524L26.7708 11.341C28.6978 6.77705 33.0418 3.82705 37.8398 3.82705C44.1908 3.82705 49.2728 9.14005 49.9358 16.5541C49.9378 16.5701 50.2288 18.264 49.5208 21.261Z" fill="white"/>
<path d="M15.9985 7.90405C10.4845 7.90405 5.99854 12.3901 5.99854 17.9041C5.99854 18.4571 6.44554 18.9041 6.99854 18.9041C7.55154 18.9041 7.99854 18.4571 7.99854 17.9041C7.99854 13.4931 11.5875 9.90405 15.9985 9.90405C16.5515 9.90405 16.9985 9.45705 16.9985 8.90405C16.9985 8.35105 16.5505 7.90405 15.9985 7.90405Z" fill="white"/>
</g>
<defs>
<clipPath id="clip0">
<rect width="51.997" height="51.997" fill="white"/>
</clipPath>
</defs>
</svg>
