<svg width="52" height="52" viewBox="0 0 52 52" fill="none" xmlns="http://www.w3.org/2000/svg">
<g clip-path="url(#clip0)">
<path d="M22.5912 4.19451C22.9487 3.97309 23.0591 3.50385 22.8376 3.14628C22.6163 2.78882 22.1472 2.67857 21.7894 2.89989C19.0666 4.58628 16.7967 6.93359 15.2032 9.7005C7.05489 11.7964 0.791543 19.196 0.775908 28.347C0.765147 34.5576 3.73002 40.345 8.71205 43.9785C8.9355 44.1414 9.00383 44.4368 8.87073 44.6657C7.85763 46.4088 6.57591 47.9917 5.06149 49.3701C3.94403 50.3873 4.85814 52.2415 6.34738 51.9738C9.17032 51.4666 13.3061 50.315 16.9778 47.7093C17.1861 47.5616 17.4516 47.4988 17.7263 47.5321C21.2202 47.957 24.7841 47.4385 28.0609 45.9453C28.4435 45.7709 28.6124 45.3193 28.438 44.9366C28.2636 44.554 27.8123 44.3852 27.4293 44.5595C24.3911 45.944 21.1052 46.4089 17.91 46.0203C17.2583 45.9413 16.6144 46.0999 16.0965 46.4674C12.6747 48.8957 8.7955 49.982 6.11865 50.4671C7.73439 48.9905 9.10301 47.2964 10.1874 45.431C10.7137 44.5257 10.4651 43.3723 9.60941 42.7481C5.0219 39.4024 2.28911 34.0198 2.29875 28.3496C2.3155 18.5682 10.2873 10.6105 20.0691 10.6107C29.8676 10.6107 37.8392 18.5823 37.8392 28.3808C37.8392 34.1104 35.0508 39.5212 30.3803 42.8548C30.038 43.0991 29.9586 43.5746 30.2029 43.9168C30.4472 44.2592 30.9226 44.3386 31.265 44.0943C33.1296 42.7634 34.7166 41.1267 35.9796 39.2807C39.4089 41.4461 43.0965 42.4459 45.6525 42.9051C47.1405 43.1724 48.0569 41.3196 46.9383 40.3014C45.4237 38.9227 44.1421 37.3399 43.1291 35.5968C42.996 35.3681 43.0643 35.0727 43.2878 34.9097C48.2574 31.2854 51.2348 25.5069 51.224 19.2783C51.2008 5.7143 37.6611 -3.47503 25.1213 1.25837C24.7279 1.40679 24.5293 1.84618 24.6778 2.23958C24.8265 2.63299 25.266 2.83156 25.6591 2.68304C37.2832 -1.70448 49.68 6.94425 49.7011 19.2808C49.7108 24.951 46.9779 30.3336 42.3904 33.6793C41.5346 34.3033 41.2862 35.4567 41.8125 36.362C42.8954 38.2253 44.2622 39.9177 45.8811 41.3988C43.4619 40.9605 39.9944 40.0159 36.7889 37.9907C38.4489 35.1015 39.3619 31.7937 39.3619 28.3807C39.3619 16.7318 29.0269 7.59156 17.257 9.28903C18.6559 7.247 20.4757 5.50466 22.5912 4.19451Z" fill="white"/>
<path d="M32.0831 29.9712C32.4824 30.0645 32.9023 29.8221 33.0214 29.4295C34.6106 24.1928 31.5676 18.9222 26.238 17.6801C26.0384 17.6336 25.8335 17.6709 25.6636 17.7689C25.4938 17.8669 25.3591 18.0258 25.2996 18.2219C25.1806 18.6141 25.4076 19.0073 25.8067 19.1003C30.3395 20.1568 32.9273 24.6391 31.5759 29.0928C31.4569 29.485 31.6839 29.8782 32.0831 29.9712Z" fill="white"/>
</g>
<defs>
<clipPath id="clip0">
<rect width="52" height="52" fill="white"/>
</clipPath>
</defs>
</svg>
