<svg width="52" height="52" viewBox="0 0 52 52" fill="none" xmlns="http://www.w3.org/2000/svg">
<path d="M37.9625 14.1754C36.397 12.6308 34.3165 11.7902 32.11 11.8008C29.9035 11.8218 27.8441 12.6939 26.2995 14.2594C24.755 15.825 23.9144 17.9055 23.9249 20.112C23.9249 20.4587 24.2086 20.7424 24.5553 20.7424C24.9021 20.7424 25.1858 20.4587 25.1858 20.112C25.1753 18.2417 25.8898 16.487 27.1926 15.1526C28.4955 13.8181 30.2502 13.0826 32.1205 13.0721C33.9908 13.0616 35.7455 13.7761 37.0799 15.079C38.4144 16.3819 39.1499 18.1366 39.1604 20.0069C39.1709 21.8772 38.4564 23.6319 37.1535 24.9663C35.8506 26.3007 34.0959 27.0362 32.2256 27.0467C31.8789 27.0467 31.5952 27.3304 31.5952 27.6772C31.5952 28.0239 31.8789 28.3076 32.2256 28.3076C34.4321 28.2866 36.4915 27.4145 38.0361 25.8489C39.5807 24.2833 40.4422 22.1924 40.4212 19.9859C40.4002 17.7794 39.5281 15.72 37.9625 14.1754Z" fill="white"/>
<path d="M50.5607 23.5689L48.6063 22.7598C48.911 20.9421 48.911 19.1138 48.6063 17.3066L50.5607 16.4975C51.1175 16.2769 51.5693 15.8356 51.8005 15.2577C52.0422 14.6798 52.0422 14.0493 51.8005 13.4714L50.7078 10.8236C50.4661 10.2457 50.0248 9.80443 49.4469 9.56276C48.869 9.3211 48.2386 9.3211 47.6607 9.56276L45.7063 10.3718C44.6451 8.87979 43.3527 7.58741 41.8502 6.51567L42.6592 4.56133C43.1531 3.37401 42.5857 2.00807 41.3984 1.51423L38.761 0.421484C37.5737 -0.0723553 36.2078 0.495034 35.714 1.68235L34.9049 3.63669C33.0872 3.33198 31.2589 3.33198 29.4517 3.63669L28.6426 1.68235C28.4009 1.10445 27.9596 0.66315 27.3817 0.421484C26.8038 0.179818 26.1734 0.179818 25.5955 0.421484L22.9582 1.51423C22.3803 1.7559 21.939 2.1972 21.6973 2.7751C21.4557 3.353 21.4557 3.98343 21.6973 4.56133L22.5064 6.51567C21.0144 7.5769 19.722 8.86929 18.6502 10.3718L16.6959 9.56276C16.118 9.3211 15.4876 9.3211 14.9097 9.56276C14.3318 9.80443 13.8905 10.2457 13.6488 10.8236L12.5455 13.4609C12.0517 14.6483 12.6191 16.0142 13.8064 16.508L16.2336 17.5167C16.5593 17.6533 16.9271 17.4957 17.0531 17.1805C17.1897 16.8548 17.0321 16.487 16.7169 16.3609L14.2897 15.3522C13.7434 15.1211 13.4807 14.5012 13.7118 13.9548L14.8046 11.3175C15.0253 10.7711 15.6557 10.5084 16.2021 10.7396L18.6292 11.7483C18.9024 11.8638 19.2281 11.7693 19.3963 11.5171C20.5205 9.83595 21.9495 8.40697 23.6202 7.2932C23.8723 7.12509 23.9669 6.80987 23.8513 6.52618L22.8426 4.09901C22.7375 3.83633 22.7375 3.54213 22.8426 3.27945C22.9477 3.01677 23.1578 2.80662 23.4205 2.70155L26.0683 1.6088C26.331 1.50373 26.6252 1.50373 26.8879 1.6088C27.1506 1.71387 27.3607 1.92402 27.4658 2.1867L28.4745 4.61386C28.5901 4.88705 28.8843 5.04466 29.1785 4.99212C31.1643 4.59285 33.1712 4.59285 35.1571 4.99212C35.4513 5.05517 35.7455 4.89756 35.8611 4.61386L36.8698 2.1867C37.1009 1.64032 37.7208 1.37764 38.2672 1.6088L40.9045 2.70155C41.4509 2.93271 41.7136 3.55263 41.4824 4.09901L40.4947 6.50516C40.3792 6.77835 40.4737 7.10407 40.7259 7.27219C42.4071 8.39646 43.836 9.82544 44.9498 11.4961C45.1179 11.7483 45.4331 11.8428 45.7168 11.7272L48.144 10.7186C48.4067 10.6135 48.7009 10.6135 48.9636 10.7186C49.2262 10.8236 49.4364 11.0338 49.5415 11.2965L50.6342 13.9443C50.7393 14.207 50.7393 14.5012 50.6342 14.7638C50.5291 15.0265 50.319 15.2367 50.0563 15.3417L47.6291 16.3504C47.3559 16.466 47.1983 16.7602 47.2509 17.0544C47.6502 19.0403 47.6396 21.0471 47.2509 23.033C47.1878 23.3272 47.3454 23.6214 47.6291 23.737L50.0563 24.7457C50.6027 24.9768 50.8654 25.5968 50.6342 26.1432L49.5415 28.7805C49.3103 29.3268 48.6904 29.5895 48.144 29.3584L45.7168 28.3497C45.4436 28.2341 45.1179 28.3286 44.9498 28.5808C43.8255 30.262 42.3965 31.691 40.7259 32.8047C40.4737 32.9728 40.3792 33.2881 40.4947 33.5717L41.5034 35.9989C41.6085 36.2616 41.6085 36.5558 41.5034 36.8185C41.3984 37.0812 41.1882 37.2913 40.9255 37.3964L38.2777 38.4891C38.015 38.5942 37.7208 38.5942 37.4582 38.4891C37.1955 38.3841 36.9853 38.1739 36.8803 37.9112L35.8716 35.4841C35.735 35.1583 35.3672 35.0112 35.052 35.1478C34.7263 35.2844 34.5792 35.6522 34.7158 35.9674L35.7245 38.3946C35.9661 38.9725 36.4074 39.4138 36.9853 39.6554C37.269 39.771 37.5737 39.834 37.8784 39.834C38.1832 39.834 38.4879 39.771 38.7716 39.6554L41.4194 38.5627C41.9973 38.321 42.4386 37.8797 42.6802 37.3018C42.9219 36.7239 42.9219 36.0935 42.6802 35.5156L41.8712 33.5612C43.3632 32.5 44.6556 31.2076 45.7273 29.7051L47.6817 30.5142C48.2596 30.7558 48.89 30.7558 49.4679 30.5142C50.0458 30.2725 50.4871 29.8312 50.7288 29.2533L51.8215 26.616C52.3154 25.4287 51.748 24.0627 50.5607 23.5689Z" fill="white"/>
<path d="M15.1936 30.6508C11.9364 30.6508 9.28857 33.3091 9.28857 36.5663C9.28857 39.8236 11.9364 42.4609 15.1936 42.4609C18.4509 42.4609 21.0987 39.813 21.0987 36.5558C21.0987 33.2986 18.4509 30.6508 15.1936 30.6508ZM15.1936 41.2105C12.6299 41.2105 10.5494 39.1301 10.5494 36.5663C10.5494 34.0026 12.6299 31.9221 15.1936 31.9221C17.7574 31.9221 19.8378 34.0026 19.8378 36.5663C19.8378 39.1301 17.7574 41.2105 15.1936 41.2105Z" fill="white"/>
<path d="M28.5166 33.6348H27.1191C26.8249 32.4054 26.3416 31.2496 25.6796 30.1674L26.6673 29.1797C27.0246 28.8224 27.2137 28.3601 27.2137 27.8558C27.2137 27.3619 27.0246 26.8891 26.6673 26.5319L25.1963 25.0609C24.8391 24.7036 24.3767 24.5145 23.8724 24.5145C23.368 24.5145 22.9057 24.7036 22.5485 25.0609L21.5608 26.0485C20.4786 25.3866 19.3228 24.9138 18.0934 24.6091V23.2116C18.0934 22.1819 17.2528 21.3413 16.2231 21.3413H14.1427C13.113 21.3413 12.2724 22.1819 12.2724 23.2116V24.6091C11.0431 24.9033 9.88729 25.3866 8.80505 26.0485L7.81737 25.0609C7.46012 24.7036 6.99781 24.5145 6.49346 24.5145C5.99962 24.5145 5.5268 24.7036 5.16955 25.0609L3.69854 26.5319C3.34129 26.8891 3.15216 27.3514 3.15216 27.8558C3.15216 28.3496 3.34129 28.8224 3.69854 29.1797L4.68622 30.1674C4.02426 31.2496 3.55144 32.4054 3.24673 33.6348H1.87028C0.840577 33.6348 0 34.4753 0 35.505V37.5855C0.0105072 38.6362 0.840577 39.4663 1.87028 39.4663H3.26774C3.56195 40.6956 4.04528 41.8514 4.70723 42.9336L3.71955 43.9213C3.36231 44.2786 3.17318 44.7409 3.17318 45.2452C3.17318 45.7391 3.36231 46.2119 3.71955 46.5691L5.19056 48.0401C5.54781 48.3974 6.01013 48.5865 6.51447 48.5865C7.00831 48.5865 7.48114 48.3974 7.83838 48.0401L8.82606 47.0525C9.9083 47.7144 11.0641 48.1872 12.2934 48.492V49.8894C12.2934 50.9191 13.134 51.7597 14.1637 51.7597H16.2442C17.2739 51.7597 18.1144 50.9191 18.1144 49.8894V48.4814C19.3438 48.1872 20.4996 47.7039 21.5818 47.042L22.5695 48.0296C22.9267 48.3869 23.3891 48.576 23.8934 48.576C24.3978 48.576 24.8601 48.3869 25.2173 48.0296L26.6883 46.5586C27.0456 46.2014 27.2347 45.7391 27.2347 45.2347C27.2347 44.7409 27.0456 44.2681 26.6883 43.9108L25.7006 42.9231C26.3626 41.8409 26.8354 40.6851 27.1401 39.4557H28.5166C29.5463 39.4557 30.3869 38.6152 30.3869 37.5855V35.505C30.3869 34.4753 29.5463 33.6348 28.5166 33.6348ZM29.126 37.6065C29.126 37.9427 28.8528 38.2159 28.5166 38.2159H26.6043C26.2996 38.2159 26.0474 38.426 25.9843 38.7202C25.7006 40.1387 25.1543 41.4731 24.3452 42.671C24.1771 42.9231 24.2086 43.2594 24.4188 43.4695L25.7742 44.8249C25.8898 44.9405 25.9528 45.0876 25.9528 45.2557C25.9528 45.4133 25.8898 45.5709 25.7742 45.6865L24.3032 47.1575C24.1876 47.2731 24.0405 47.3362 23.8724 47.3362C23.7043 47.3362 23.5572 47.2731 23.4416 47.1575L22.0862 45.8021C21.876 45.592 21.5398 45.5604 21.2876 45.7286C20.0793 46.5376 18.7554 47.084 17.3369 47.3677C17.0427 47.4307 16.8326 47.6829 16.8326 47.9876V49.8999C16.8326 50.2362 16.5594 50.5093 16.2231 50.5093H14.1427C13.8065 50.5093 13.5333 50.2362 13.5333 49.8999V47.9876C13.5333 47.6829 13.3231 47.4307 13.0289 47.3677C11.6105 47.084 10.2761 46.5376 9.07823 45.7286C8.97316 45.655 8.84708 45.6235 8.7315 45.6235C8.57389 45.6235 8.40577 45.6865 8.29019 45.8126L6.93476 47.168C6.81918 47.2836 6.67208 47.3467 6.50397 47.3467C6.34636 47.3467 6.18875 47.2836 6.07317 47.168L4.60216 45.697C4.48658 45.5815 4.42354 45.4344 4.42354 45.2662C4.42354 45.1086 4.48658 44.951 4.60216 44.8354L5.95759 43.48C6.16774 43.2699 6.19926 42.9336 6.03114 42.6815C5.22209 41.4731 4.67571 40.1492 4.39202 38.7307C4.32897 38.4365 4.0768 38.2264 3.77209 38.2264H1.87028C1.53405 38.2264 1.26087 37.9532 1.26087 37.617V35.526H1.27137C1.27137 35.1898 1.54456 34.9166 1.88079 34.9166H3.7931C4.09781 34.9166 4.34999 34.7065 4.41303 34.4123C4.69673 32.9938 5.2431 31.6594 6.05216 30.4616C6.22027 30.2094 6.18875 29.8732 5.97861 29.663L4.61267 28.3076C4.49709 28.192 4.43404 28.0449 4.43404 27.8768C4.43404 27.7192 4.49709 27.5616 4.61267 27.446L6.08368 25.975C6.19926 25.8594 6.34636 25.7964 6.51447 25.7964C6.67208 25.7964 6.82969 25.8594 6.94527 25.975L8.3007 27.3304C8.51084 27.5406 8.84708 27.5721 9.09925 27.404C10.3076 26.5949 11.6315 26.0485 13.05 25.7648C13.3442 25.7018 13.5543 25.4496 13.5543 25.1449V23.2326C13.5543 22.8964 13.8275 22.6232 14.1637 22.6232H16.2442C16.5804 22.6232 16.8536 22.8964 16.8536 23.2326V25.1554C16.8536 25.4601 17.0637 25.7123 17.3579 25.7754C18.7764 26.059 20.1108 26.6054 21.3086 27.4145C21.5608 27.5826 21.897 27.5511 22.1072 27.3409L23.4626 25.9855C23.5782 25.8699 23.7253 25.8069 23.8934 25.8069C24.0615 25.8069 24.2086 25.8699 24.3242 25.9855L25.7952 27.4565C25.9108 27.5721 25.9738 27.7192 25.9738 27.8873C25.9738 28.0449 25.9108 28.2025 25.7952 28.3181L24.4188 29.663C24.2086 29.8732 24.1771 30.2094 24.3452 30.4616C25.1543 31.6699 25.7006 32.9938 25.9843 34.4123C26.0474 34.7065 26.2996 34.9166 26.6043 34.9166H28.5166C28.8528 34.9166 29.126 35.1898 29.126 35.526V37.6065Z" fill="white"/>
</svg>
