<svg width="30" height="30" viewBox="0 0 30 30" fill="none" xmlns="http://www.w3.org/2000/svg">
<path d="M15 0C6.729 0 0 6.729 0 15C0 23.271 6.729 30 15 30C23.271 30 30 23.271 30 15C30 6.729 23.271 0 15 0ZM22.7815 15.413L11.7815 22.913C11.697 22.9705 11.5985 23 11.5 23C11.42 23 11.3395 22.981 11.2665 22.942C11.1025 22.8555 11 22.6855 11 22.5V7.5C11 7.3145 11.1025 7.1445 11.2665 7.058C11.4305 6.971 11.6285 6.983 11.782 7.087L22.782 14.587C22.918 14.68 23 14.8345 23 15C23 15.1655 22.918 15.32 22.7815 15.413Z" fill="#225EF7"/>
</svg>
