<svg width="52" height="52" viewBox="0 0 52 52" fill="none" xmlns="http://www.w3.org/2000/svg">
<g clip-path="url(#clip0)">
<path d="M50.4451 42.8951L39.047 31.497C43.7207 23.4735 42.6474 12.9976 35.7795 6.13015C27.6071 -2.04399 14.3077 -2.0431 6.13531 6.13015C-2.03794 14.3034 -2.03794 27.6015 6.13531 35.7748C10.2215 39.8614 15.5894 41.9045 20.9578 41.9045C24.6107 41.9045 28.2533 40.9347 31.5022 39.0423L42.9003 50.4399C43.9407 51.4799 45.3065 51.9999 46.6727 51.9999C48.0389 51.9999 49.4056 51.4799 50.4451 50.4399C52.5246 48.36 52.5246 44.9751 50.4451 42.8951ZM7.60641 34.3037C0.244258 26.9415 0.244258 14.963 7.60641 7.60125C11.2873 3.9204 16.1223 2.07997 20.9574 2.07997C25.7929 2.07997 30.6275 3.9204 34.3088 7.60125C41.6705 14.963 41.6705 26.9415 34.3088 34.3037C26.9462 41.6645 14.9677 41.6658 7.60641 34.3037ZM48.974 48.9693C47.7056 50.2382 45.6403 50.2368 44.3714 48.9693L33.2808 37.8787C34.151 37.245 34.995 36.5592 35.7795 35.7748C36.5643 34.9899 37.2497 34.1459 37.8839 33.2761L48.974 44.3662C50.2424 45.6351 50.2424 47.7004 48.974 48.9693Z" fill="white"/>
<path d="M12.591 11.1168C12.1848 10.7101 11.5265 10.7101 11.1199 11.1168C5.69637 16.5403 5.69637 25.3646 11.1199 30.7881C11.323 30.9912 11.5892 31.093 11.8554 31.093C12.1216 31.093 12.3879 30.9912 12.591 30.7881C12.9972 30.3819 12.9972 29.7237 12.591 29.3175C7.97857 24.7046 7.97857 17.2003 12.591 12.5874C12.9972 12.1812 12.9972 11.523 12.591 11.1168Z" fill="white"/>
</g>
<defs>
<clipPath id="clip0">
<rect width="52" height="52" fill="white"/>
</clipPath>
</defs>
</svg>
