<svg width="40" height="40" viewBox="0 0 40 40" fill="none" xmlns="http://www.w3.org/2000/svg">
<path d="M28.125 33.125C24.1468 33.125 20.3314 31.5446 17.5184 28.7316C14.7054 25.9186 13.125 22.1032 13.125 18.125V1.875H10.625C9.96196 1.875 9.32607 2.13839 8.85723 2.60723C8.38839 3.07607 8.125 3.71196 8.125 4.375V35.625C8.125 36.288 8.38839 36.9239 8.85723 37.3928C9.32607 37.8616 9.96196 38.125 10.625 38.125H29.375C30.038 38.125 30.6739 37.8616 31.1428 37.3928C31.6116 36.9239 31.875 36.288 31.875 35.625V33.125H28.125Z" fill="#9BB7FF"/>
<path d="M20 35.625C21.0355 35.625 21.875 34.7855 21.875 33.75C21.875 32.7145 21.0355 31.875 20 31.875C18.9645 31.875 18.125 32.7145 18.125 33.75C18.125 34.7855 18.9645 35.625 20 35.625Z" fill="#9BB7FF"/>
<path d="M25.3333 8H14.6667C13.1939 8 12 9.11929 12 10.5V20.5C12 21.8807 13.1939 23 14.6667 23H25.3333C26.8061 23 28 21.8807 28 20.5V10.5C28 9.11929 26.8061 8 25.3333 8Z" fill="#9BB7FF"/>
<path d="M29.375 38.75H10.625C9.7965 38.749 9.00222 38.4194 8.41639 37.8336C7.83055 37.2478 7.50099 36.4535 7.5 35.625V4.375C7.50099 3.5465 7.83055 2.75222 8.41639 2.16639C9.00222 1.58055 9.7965 1.25099 10.625 1.25H29.375C30.2035 1.25099 30.9978 1.58055 31.5836 2.16639C32.1694 2.75222 32.499 3.5465 32.5 4.375V35.625C32.499 36.4535 32.1694 37.2478 31.5836 37.8336C30.9978 38.4194 30.2035 38.749 29.375 38.75ZM10.625 2.5C10.1277 2.5 9.65081 2.69754 9.29917 3.04917C8.94754 3.40081 8.75 3.87772 8.75 4.375V35.625C8.75 36.1223 8.94754 36.5992 9.29917 36.9508C9.65081 37.3025 10.1277 37.5 10.625 37.5H29.375C29.8723 37.5 30.3492 37.3025 30.7008 36.9508C31.0525 36.5992 31.25 36.1223 31.25 35.625V4.375C31.25 3.87772 31.0525 3.40081 30.7008 3.04917C30.3492 2.69754 29.8723 2.5 29.375 2.5H10.625Z" fill="#225EF7"/>
<path d="M20 36.25C19.5056 36.25 19.0222 36.1034 18.6111 35.8287C18.2 35.554 17.8795 35.1635 17.6903 34.7067C17.5011 34.2499 17.4516 33.7472 17.548 33.2623C17.6445 32.7773 17.8826 32.3319 18.2322 31.9822C18.5819 31.6326 19.0273 31.3945 19.5123 31.298C19.9972 31.2016 20.4999 31.2511 20.9567 31.4403C21.4135 31.6295 21.804 31.95 22.0787 32.3611C22.3534 32.7722 22.5 33.2555 22.5 33.75C22.5 34.413 22.2366 35.0489 21.7678 35.5178C21.2989 35.9866 20.663 36.25 20 36.25ZM20 32.5C19.7528 32.5 19.5111 32.5733 19.3055 32.7107C19.1 32.848 18.9398 33.0432 18.8452 33.2716C18.7505 33.5001 18.7258 33.7514 18.774 33.9939C18.8223 34.2363 18.9413 34.4591 19.1161 34.6339C19.2909 34.8087 19.5137 34.9277 19.7561 34.976C19.9986 35.0242 20.25 34.9995 20.4784 34.9048C20.7068 34.8102 20.902 34.65 21.0393 34.4445C21.1767 34.2389 21.25 33.9972 21.25 33.75C21.25 33.4185 21.1183 33.1005 20.8839 32.8661C20.6495 32.6317 20.3315 32.5 20 32.5Z" fill="#225EF7"/>
<path d="M26.875 34.375H24.375C24.2092 34.375 24.0503 34.3092 23.9331 34.1919C23.8158 34.0747 23.75 33.9158 23.75 33.75C23.75 33.5842 23.8158 33.4253 23.9331 33.3081C24.0503 33.1908 24.2092 33.125 24.375 33.125H26.875C27.0408 33.125 27.1997 33.1908 27.3169 33.3081C27.4342 33.4253 27.5 33.5842 27.5 33.75C27.5 33.9158 27.4342 34.0747 27.3169 34.1919C27.1997 34.3092 27.0408 34.375 26.875 34.375Z" fill="#225EF7"/>
<path d="M15.625 34.375H13.125C12.9592 34.375 12.8003 34.3092 12.6831 34.1919C12.5658 34.0747 12.5 33.9158 12.5 33.75C12.5 33.5842 12.5658 33.4253 12.6831 33.3081C12.8003 33.1908 12.9592 33.125 13.125 33.125H15.625C15.7908 33.125 15.9497 33.1908 16.0669 33.3081C16.1842 33.4253 16.25 33.5842 16.25 33.75C16.25 33.9158 16.1842 34.0747 16.0669 34.1919C15.9497 34.3092 15.7908 34.375 15.625 34.375Z" fill="#225EF7"/>
<path d="M13.75 5C14.0952 5 14.375 4.72018 14.375 4.375C14.375 4.02982 14.0952 3.75 13.75 3.75C13.4048 3.75 13.125 4.02982 13.125 4.375C13.125 4.72018 13.4048 5 13.75 5Z" fill="#225EF7"/>
<path d="M11.25 5C11.5952 5 11.875 4.72018 11.875 4.375C11.875 4.02982 11.5952 3.75 11.25 3.75C10.9048 3.75 10.625 4.02982 10.625 4.375C10.625 4.72018 10.9048 5 11.25 5Z" fill="#225EF7"/>
<path d="M25.1429 24H14.8571C13.8342 24 12.8531 23.6162 12.1297 22.933C11.4064 22.2499 11 21.3233 11 20.3571V10.6429C11 9.67671 11.4064 8.75014 12.1297 8.06697C12.8531 7.3838 13.8342 7 14.8571 7H25.1429C26.1658 7 27.1469 7.3838 27.8703 8.06697C28.5936 8.75014 29 9.67671 29 10.6429V20.3571C29 21.3233 28.5936 22.2499 27.8703 22.933C27.1469 23.6162 26.1658 24 25.1429 24ZM14.8571 9.42857C14.5162 9.42857 14.1891 9.5565 13.948 9.78423C13.7069 10.0119 13.5714 10.3208 13.5714 10.6429V20.3571C13.5714 20.6792 13.7069 20.9881 13.948 21.2158C14.1891 21.4435 14.5162 21.5714 14.8571 21.5714H25.1429C25.4838 21.5714 25.8109 21.4435 26.052 21.2158C26.2931 20.9881 26.4286 20.6792 26.4286 20.3571V10.6429C26.4286 10.3208 26.2931 10.0119 26.052 9.78423C25.8109 9.5565 25.4838 9.42857 25.1429 9.42857H14.8571Z" fill="#225EF7"/>
<path d="M28.75 27.5H11.25C11.0842 27.5 10.9253 27.4342 10.8081 27.3169C10.6908 27.1997 10.625 27.0408 10.625 26.875C10.625 26.7092 10.6908 26.5503 10.8081 26.4331C10.9253 26.3158 11.0842 26.25 11.25 26.25H28.75C28.9158 26.25 29.0747 26.3158 29.1919 26.4331C29.3092 26.5503 29.375 26.7092 29.375 26.875C29.375 27.0408 29.3092 27.1997 29.1919 27.3169C29.0747 27.4342 28.9158 27.5 28.75 27.5Z" fill="#225EF7"/>
<path d="M18.75 30H11.25C11.0842 30 10.9253 29.9342 10.8081 29.8169C10.6908 29.6997 10.625 29.5408 10.625 29.375C10.625 29.2092 10.6908 29.0503 10.8081 28.9331C10.9253 28.8158 11.0842 28.75 11.25 28.75H18.75C18.9158 28.75 19.0747 28.8158 19.1919 28.9331C19.3092 29.0503 19.375 29.2092 19.375 29.375C19.375 29.5408 19.3092 29.6997 19.1919 29.8169C19.0747 29.9342 18.9158 30 18.75 30Z" fill="#225EF7"/>
</svg>
