<svg width="26" height="38" viewBox="0 0 26 38" fill="none" xmlns="http://www.w3.org/2000/svg">
<path d="M21.125 32.125C17.1468 32.125 13.3314 30.5446 10.5184 27.7316C7.70535 24.9186 6.125 21.1032 6.125 17.125V0.875H3.625C2.96196 0.875 2.32607 1.13839 1.85723 1.60723C1.38839 2.07607 1.125 2.71196 1.125 3.375V34.625C1.125 35.288 1.38839 35.9239 1.85723 36.3928C2.32607 36.8616 2.96196 37.125 3.625 37.125H22.375C23.038 37.125 23.6739 36.8616 24.1428 36.3928C24.6116 35.9239 24.875 35.288 24.875 34.625V32.125H21.125Z" fill="#9BB7FF"/>
<path d="M13 34.625C14.0355 34.625 14.875 33.7855 14.875 32.75C14.875 31.7145 14.0355 30.875 13 30.875C11.9645 30.875 11.125 31.7145 11.125 32.75C11.125 33.7855 11.9645 34.625 13 34.625Z" fill="#9BB7FF"/>
<path d="M18.3333 7H7.66667C6.19391 7 5 8.11929 5 9.5V19.5C5 20.8807 6.19391 22 7.66667 22H18.3333C19.8061 22 21 20.8807 21 19.5V9.5C21 8.11929 19.8061 7 18.3333 7Z" fill="#9BB7FF"/>
<path d="M22.375 37.75H3.625C2.7965 37.749 2.00222 37.4194 1.41639 36.8336C0.830551 36.2478 0.500992 35.4535 0.5 34.625V3.375C0.500992 2.5465 0.830551 1.75222 1.41639 1.16639C2.00222 0.580551 2.7965 0.250992 3.625 0.25H22.375C23.2035 0.250992 23.9978 0.580551 24.5836 1.16639C25.1694 1.75222 25.499 2.5465 25.5 3.375V34.625C25.499 35.4535 25.1694 36.2478 24.5836 36.8336C23.9978 37.4194 23.2035 37.749 22.375 37.75ZM3.625 1.5C3.12772 1.5 2.65081 1.69754 2.29917 2.04917C1.94754 2.40081 1.75 2.87772 1.75 3.375V34.625C1.75 35.1223 1.94754 35.5992 2.29917 35.9508C2.65081 36.3025 3.12772 36.5 3.625 36.5H22.375C22.8723 36.5 23.3492 36.3025 23.7008 35.9508C24.0525 35.5992 24.25 35.1223 24.25 34.625V3.375C24.25 2.87772 24.0525 2.40081 23.7008 2.04917C23.3492 1.69754 22.8723 1.5 22.375 1.5H3.625Z" fill="#225EF7"/>
<path d="M13 35.25C12.5056 35.25 12.0222 35.1034 11.6111 34.8287C11.2 34.554 10.8795 34.1635 10.6903 33.7067C10.5011 33.2499 10.4516 32.7472 10.548 32.2623C10.6445 31.7773 10.8826 31.3319 11.2322 30.9822C11.5819 30.6326 12.0273 30.3945 12.5123 30.298C12.9972 30.2016 13.4999 30.2511 13.9567 30.4403C14.4135 30.6295 14.804 30.95 15.0787 31.3611C15.3534 31.7722 15.5 32.2555 15.5 32.75C15.5 33.413 15.2366 34.0489 14.7678 34.5178C14.2989 34.9866 13.663 35.25 13 35.25ZM13 31.5C12.7528 31.5 12.5111 31.5733 12.3055 31.7107C12.1 31.848 11.9398 32.0432 11.8452 32.2716C11.7505 32.5001 11.7258 32.7514 11.774 32.9939C11.8223 33.2363 11.9413 33.4591 12.1161 33.6339C12.2909 33.8087 12.5137 33.9277 12.7561 33.976C12.9986 34.0242 13.25 33.9995 13.4784 33.9048C13.7068 33.8102 13.902 33.65 14.0393 33.4445C14.1767 33.2389 14.25 32.9972 14.25 32.75C14.25 32.4185 14.1183 32.1005 13.8839 31.8661C13.6495 31.6317 13.3315 31.5 13 31.5Z" fill="#225EF7"/>
<path d="M19.875 33.375H17.375C17.2092 33.375 17.0503 33.3092 16.9331 33.1919C16.8158 33.0747 16.75 32.9158 16.75 32.75C16.75 32.5842 16.8158 32.4253 16.9331 32.3081C17.0503 32.1908 17.2092 32.125 17.375 32.125H19.875C20.0408 32.125 20.1997 32.1908 20.3169 32.3081C20.4342 32.4253 20.5 32.5842 20.5 32.75C20.5 32.9158 20.4342 33.0747 20.3169 33.1919C20.1997 33.3092 20.0408 33.375 19.875 33.375Z" fill="#225EF7"/>
<path d="M8.625 33.375H6.125C5.95924 33.375 5.80027 33.3092 5.68306 33.1919C5.56585 33.0747 5.5 32.9158 5.5 32.75C5.5 32.5842 5.56585 32.4253 5.68306 32.3081C5.80027 32.1908 5.95924 32.125 6.125 32.125H8.625C8.79076 32.125 8.94973 32.1908 9.06694 32.3081C9.18415 32.4253 9.25 32.5842 9.25 32.75C9.25 32.9158 9.18415 33.0747 9.06694 33.1919C8.94973 33.3092 8.79076 33.375 8.625 33.375Z" fill="#225EF7"/>
<path d="M6.75 4C7.09518 4 7.375 3.72018 7.375 3.375C7.375 3.02982 7.09518 2.75 6.75 2.75C6.40482 2.75 6.125 3.02982 6.125 3.375C6.125 3.72018 6.40482 4 6.75 4Z" fill="#225EF7"/>
<path d="M4.25 4C4.59518 4 4.875 3.72018 4.875 3.375C4.875 3.02982 4.59518 2.75 4.25 2.75C3.90482 2.75 3.625 3.02982 3.625 3.375C3.625 3.72018 3.90482 4 4.25 4Z" fill="#225EF7"/>
<path d="M18.1429 23H7.85714C6.83416 23 5.85309 22.6162 5.12973 21.933C4.40638 21.2499 4 20.3233 4 19.3571V9.64286C4 8.67671 4.40638 7.75014 5.12973 7.06697C5.85309 6.3838 6.83416 6 7.85714 6H18.1429C19.1658 6 20.1469 6.3838 20.8703 7.06697C21.5936 7.75014 22 8.67671 22 9.64286V19.3571C22 20.3233 21.5936 21.2499 20.8703 21.933C20.1469 22.6162 19.1658 23 18.1429 23ZM7.85714 8.42857C7.51615 8.42857 7.18912 8.5565 6.948 8.78423C6.70689 9.01195 6.57143 9.32081 6.57143 9.64286V19.3571C6.57143 19.6792 6.70689 19.9881 6.948 20.2158C7.18912 20.4435 7.51615 20.5714 7.85714 20.5714H18.1429C18.4838 20.5714 18.8109 20.4435 19.052 20.2158C19.2931 19.9881 19.4286 19.6792 19.4286 19.3571V9.64286C19.4286 9.32081 19.2931 9.01195 19.052 8.78423C18.8109 8.5565 18.4838 8.42857 18.1429 8.42857H7.85714Z" fill="#225EF7"/>
<path d="M21.75 26.5H4.25C4.08424 26.5 3.92527 26.4342 3.80806 26.3169C3.69085 26.1997 3.625 26.0408 3.625 25.875C3.625 25.7092 3.69085 25.5503 3.80806 25.4331C3.92527 25.3158 4.08424 25.25 4.25 25.25H21.75C21.9158 25.25 22.0747 25.3158 22.1919 25.4331C22.3092 25.5503 22.375 25.7092 22.375 25.875C22.375 26.0408 22.3092 26.1997 22.1919 26.3169C22.0747 26.4342 21.9158 26.5 21.75 26.5Z" fill="#225EF7"/>
<path d="M11.75 29H4.25C4.08424 29 3.92527 28.9342 3.80806 28.8169C3.69085 28.6997 3.625 28.5408 3.625 28.375C3.625 28.2092 3.69085 28.0503 3.80806 27.9331C3.92527 27.8158 4.08424 27.75 4.25 27.75H11.75C11.9158 27.75 12.0747 27.8158 12.1919 27.9331C12.3092 28.0503 12.375 28.2092 12.375 28.375C12.375 28.5408 12.3092 28.6997 12.1919 28.8169C12.0747 28.9342 11.9158 29 11.75 29Z" fill="#225EF7"/>
</svg>
